<?xml version="1.0" encoding="UTF-8" standalone="no"?>
<svg
   xmlns:dc="http://purl.org/dc/elements/1.1/"
   xmlns:cc="http://creativecommons.org/ns#"
   xmlns:rdf="http://www.w3.org/1999/02/22-rdf-syntax-ns#"
   xmlns:svg="http://www.w3.org/2000/svg"
   xmlns="http://www.w3.org/2000/svg"
   xmlns:sodipodi="http://sodipodi.sourceforge.net/DTD/sodipodi-0.dtd"
   xmlns:inkscape="http://www.inkscape.org/namespaces/inkscape"
   height="24px"
   viewBox="0 0 24 24"
   width="24px"
   fill="#000000"
   version="1.1"
   id="svg5698"
   sodipodi:docname="beacon_group.svg"
   inkscape:version="0.92.4 (5da689c313, 2019-01-14)">
  <metadata
     id="metadata5704">
    <rdf:RDF>
      <cc:Work
         rdf:about="">
        <dc:format>image/svg+xml</dc:format>
        <dc:type
           rdf:resource="http://purl.org/dc/dcmitype/StillImage" />
        <dc:title></dc:title>
      </cc:Work>
    </rdf:RDF>
  </metadata>
  <defs
     id="defs5702" />
  <sodipodi:namedview
     pagecolor="#ffffff"
     bordercolor="#666666"
     borderopacity="1"
     objecttolerance="10"
     gridtolerance="10"
     guidetolerance="10"
     inkscape:pageopacity="0"
     inkscape:pageshadow="2"
     inkscape:window-width="1920"
     inkscape:window-height="991"
     id="namedview5700"
     showgrid="false"
     inkscape:zoom="9.8333333"
     inkscape:cx="12"
     inkscape:cy="12"
     inkscape:window-x="-9"
     inkscape:window-y="-9"
     inkscape:window-maximized="1"
     inkscape:current-layer="svg5698" />
  <path
     d="M0 0h24v24H0z"
     fill="none"
     id="path5694" />
  <path
     style="stroke-width:1"
     d="M 2.4003906 2.4003906 C 1.0803906 2.4003906 0.01171875 3.4807813 0.01171875 4.8007812 L 0 19.199219 C 0 20.519219 1.0803906 21.599609 2.4003906 21.599609 L 21.599609 21.599609 C 22.919609 21.599609 24 20.519219 24 19.199219 L 24 7.1992188 C 24 5.8792187 22.919609 4.8007813 21.599609 4.8007812 L 12 4.8007812 L 9.5996094 2.4003906 L 2.4003906 2.4003906 z M 12 6 C 14.322 6 16.199219 7.8772188 16.199219 10.199219 C 16.199219 13.349219 12 18 12 18 C 12 18 7.8007812 13.349219 7.8007812 10.199219 C 7.8007813 7.8772188 9.678 6 12 6 z M 12 8.6992188 C 11.172 8.6992188 10.5 9.3712188 10.5 10.199219 C 10.5 11.027219 11.172 11.699219 12 11.699219 C 12.828 11.699219 13.5 11.027219 13.5 10.199219 C 13.5 9.3712188 12.828 8.6992188 12 8.6992188 z "
     id="path5696" />
</svg>
