<?xml version="1.0" encoding="UTF-8" standalone="no"?>
<svg
   xmlns:dc="http://purl.org/dc/elements/1.1/"
   xmlns:cc="http://creativecommons.org/ns#"
   xmlns:rdf="http://www.w3.org/1999/02/22-rdf-syntax-ns#"
   xmlns:svg="http://www.w3.org/2000/svg"
   xmlns="http://www.w3.org/2000/svg"
   xmlns:sodipodi="http://sodipodi.sourceforge.net/DTD/sodipodi-0.dtd"
   xmlns:inkscape="http://www.inkscape.org/namespaces/inkscape"
   height="24px"
   viewBox="0 0 24 24"
   width="24px"
   fill="#000000"
   version="1.1"
   id="svg5698"
   sodipodi:docname="map_group.svg"
   inkscape:version="0.92.4 (5da689c313, 2019-01-14)">
  <metadata
     id="metadata5704">
    <rdf:RDF>
      <cc:Work
         rdf:about="">
        <dc:format>image/svg+xml</dc:format>
        <dc:type
           rdf:resource="http://purl.org/dc/dcmitype/StillImage" />
        <dc:title />
      </cc:Work>
    </rdf:RDF>
  </metadata>
  <defs
     id="defs5702" />
  <sodipodi:namedview
     pagecolor="#ffffff"
     bordercolor="#666666"
     borderopacity="1"
     objecttolerance="10"
     gridtolerance="10"
     guidetolerance="10"
     inkscape:pageopacity="0"
     inkscape:pageshadow="2"
     inkscape:window-width="1920"
     inkscape:window-height="991"
     id="namedview5700"
     showgrid="false"
     inkscape:zoom="9.8333333"
     inkscape:cx="12"
     inkscape:cy="12"
     inkscape:window-x="-9"
     inkscape:window-y="-9"
     inkscape:window-maximized="1"
     inkscape:current-layer="svg5698" />
  <path
     d="M0 0h24v24H0z"
     fill="none"
     id="path5694" />
  <path
     style="stroke-width:1"
     d="M 2.4003906 2.4003906 C 1.0803906 2.4003906 0.01171875 3.4807813 0.01171875 4.8007812 L 0 19.199219 C 0 20.519219 1.0803906 21.599609 2.4003906 21.599609 L 21.599609 21.599609 C 22.919609 21.599609 24 20.519219 24 19.199219 L 24 7.1992188 C 24 5.8792187 22.919609 4.8007813 21.599609 4.8007812 L 12 4.8007812 L 9.5996094 2.4003906 L 2.4003906 2.4003906 z M 10 6 L 14 7.4003906 L 17.560547 6 L 17.666016 6 A 0.33333333 0.33333333 0 0 1 18 6.3339844 L 18 16.414062 C 18 16.567396 17.899766 16.665752 17.759766 16.732422 L 14 18 L 10 16.599609 L 6.4394531 17.980469 C 6.4061161 18.000469 6.3673144 18 6.3339844 18 A 0.33333333 0.33333333 0 0 1 6 17.666016 L 6 7.5859375 C 6 7.4326035 6.1002344 7.3142481 6.2402344 7.2675781 L 10 6 z M 10 7.3339844 L 10 15.259766 L 14 16.666016 L 14 8.7402344 L 10 7.3339844 z "
     id="path5696" />
</svg>
