<?xml version="1.0" encoding="UTF-8" standalone="no"?>
<svg
   viewBox="0 0 24 24"
   version="1.1"
   id="svg1"
   sodipodi:docname="photo_maps.svg"
   inkscape:version="1.4.2 (ebf0e940d0, 2025-05-08)"
   xmlns:inkscape="http://www.inkscape.org/namespaces/inkscape"
   xmlns:sodipodi="http://sodipodi.sourceforge.net/DTD/sodipodi-0.dtd"
   xmlns="http://www.w3.org/2000/svg"
   xmlns:svg="http://www.w3.org/2000/svg">
  <defs
     id="defs1" />
  <sodipodi:namedview
     id="namedview1"
     pagecolor="#ffffff"
     bordercolor="#000000"
     borderopacity="0.25"
     inkscape:showpageshadow="2"
     inkscape:pageopacity="0.0"
     inkscape:pagecheckerboard="0"
     inkscape:deskcolor="#d1d1d1"
     inkscape:zoom="24.954976"
     inkscape:cx="12.181939"
     inkscape:cy="10.679233"
     inkscape:window-width="2048"
     inkscape:window-height="1067"
     inkscape:window-x="0"
     inkscape:window-y="0"
     inkscape:window-maximized="1"
     inkscape:current-layer="g2" />
  <g
     id="g2"
     transform="translate(3.795e-5)">
    <path
       id="path1"
       style="stroke-width:0.930341"
       d="M 8.6152344,2.5390625 3.3671875,4.3066406 C 3.1718159,4.3717645 3.0332031,4.5399279 3.0332031,4.7539062 V 18.820312 a 0.4651706,0.4651706 0 0 0 0.4648438,0.464844 c 0.046517,0 0.1019205,5.71e-4 0.1484375,-0.02734 l 4.96875,-1.925781 1.1777344,0.41211 V 15.876953 L 8.6152344,15.462891 V 4.4003906 l 5.5820316,1.9609375 v 3.9257809 h 5.527343 c 0.01816,0 0.03671,0.0012 0.05469,0.002 V 3.0039062 A 0.4651706,0.4651706 0 0 0 19.314453,2.5390625 h -0.148437 l -4.96875,1.953125 z" />
    <path
       d="m 13.973051,16.631594 1.262488,1.514986 1.767484,-2.272481 2.27248,3.029974 h -7.069935 m 8.079926,0.504995 v -7.069936 c 0,-0.560546 -0.454496,-1.009992 -1.009991,-1.009992 h -7.069935 a 1.009991,1.009991 0 0 0 -1.009991,1.009992 v 7.069936 a 1.009991,1.009991 0 0 0 1.009991,1.009991 h 7.069935 a 1.009991,1.009991 0 0 0 1.009991,-1.009991 z"
       id="path1-5"
       style="stroke-width:0.504994" />
  </g>
</svg>
