<?xml version="1.0" encoding="UTF-8" standalone="no"?>
<!-- Created with Inkscape (http://www.inkscape.org/) -->

<svg
   xmlns:dc="http://purl.org/dc/elements/1.1/"
   xmlns:cc="http://creativecommons.org/ns#"
   xmlns:rdf="http://www.w3.org/1999/02/22-rdf-syntax-ns#"
   xmlns:svg="http://www.w3.org/2000/svg"
   xmlns="http://www.w3.org/2000/svg"
   xmlns:sodipodi="http://sodipodi.sourceforge.net/DTD/sodipodi-0.dtd"
   xmlns:inkscape="http://www.inkscape.org/namespaces/inkscape"
   width="551.10443mm"
   height="551.10443mm"
   viewBox="0 0 551.10443 551.10443"
   version="1.1"
   id="svg8"
   inkscape:version="0.92.4 (5da689c313, 2019-01-14)"
   sodipodi:docname="moon.svg">
  <defs
     id="defs2" />
  <sodipodi:namedview
     id="base"
     pagecolor="#ffffff"
     bordercolor="#666666"
     borderopacity="1.0"
     inkscape:pageopacity="0.0"
     inkscape:pageshadow="2"
     inkscape:zoom="0.32"
     inkscape:cx="476.47911"
     inkscape:cy="1183.5661"
     inkscape:document-units="mm"
     inkscape:current-layer="layer2"
     showgrid="false"
     fit-margin-top="0"
     fit-margin-left="0"
     fit-margin-right="0"
     fit-margin-bottom="0"
     inkscape:window-width="1920"
     inkscape:window-height="1001"
     inkscape:window-x="-9"
     inkscape:window-y="-9"
     inkscape:window-maximized="1"
     showguides="true"
     inkscape:guide-bbox="true">
    <inkscape:grid
       type="xygrid"
       id="grid2164" />
  </sodipodi:namedview>
  <metadata
     id="metadata5">
    <rdf:RDF>
      <cc:Work
         rdf:about="">
        <dc:format>image/svg+xml</dc:format>
        <dc:type
           rdf:resource="http://purl.org/dc/dcmitype/StillImage" />
        <dc:title />
      </cc:Work>
    </rdf:RDF>
  </metadata>
  <g
     inkscape:groupmode="layer"
     id="layer2"
     inkscape:label="Moon"
     transform="translate(142.95468,155.51522)"
     sodipodi:insensitive="true">
    <circle
       style="opacity:1;fill:#ececec;fill-opacity:1;stroke:none;stroke-width:0.52916664;stroke-linecap:round;stroke-linejoin:miter;stroke-miterlimit:4;stroke-dasharray:none;stroke-dashoffset:0;stroke-opacity:1"
       id="path837"
       cx="132.59753"
       cy="120.03699"
       r="275.28763" />
    <path
       style="opacity:1;fill:#cccccc;fill-opacity:1;stroke:none;stroke-width:0.52916664;stroke-linecap:round;stroke-linejoin:miter;stroke-miterlimit:4;stroke-dasharray:none;stroke-dashoffset:0;stroke-opacity:1"
       d="m 52.530025,-143.08239 c -69.744002,22.7578 -143.032362,74.977311 -164.629445,146.6737522 2.5446,23.7385038 -0.0882,47.3385558 -3.1204,70.8721508 -6.97589,33.951977 28.362362,44.588627 54.836935,37.901257 25.983793,-4.21653 34.91593,32.43556 11.949219,42.66631 -23.921842,8.37377 -30.011907,38.77352 -5.773645,51.17245 21.32734,10.7946 39.05473,43.77727 66.158799,30.09876 21.398251,-15.69939 47.900214,2.66496 70.122483,-7.98176 22.992299,-17.77074 9.139584,-50.49676 18.811769,-74.36636 3.59385,-21.95944 10.10258,-45.9927 31.13082,-57.619675 26.55578,-17.291322 58.69128,-22.507977 86.14691,-38.092451 15.84293,-10.511671 36.47373,3.454183 22.73728,20.696735 1.27439,23.863051 -10.66776,61.544101 17.44231,73.340261 17.60466,-3.12312 37.58256,-26.43979 52.49241,-3.37727 20.3854,18.52152 -6.82839,46.37262 -3.32343,70.39707 -7.34174,20.61052 10.83799,63.64293 33.42034,34.74712 19.06349,-19.18792 45.20991,-40.9462 38.89597,-71.44289 C 374.03808,149.91708 355.67062,121.60994 335.01209,96.348944 323.32843,81.088973 311.37509,65.965086 298.83757,51.482059 295.1148,35.595872 320.93112,24.317786 305.58013,6.4422979 294.74764,-16.51156 272.43689,-38.213725 245.92249,-38.654637 213.20904,-36.478891 217.15016,1.2405447 206.42023,22.912679 191.82586,40.870119 162.47899,53.273182 141.15948,40.021582 115.90615,16.730655 158.06876,6.6010902 176.15083,7.0569647 c 19.5589,-8.1033752 38.02981,-26.2794037 40.75208,-48.1154497 -2.27962,-28.122626 -23.61504,-52.345147 -47.30954,-66.025115 -22.53096,-14.0817 -49.99751,7.482164 -72.144858,-7.97404 -22.155669,-12.5179 -19.187594,26.801278 -43.08567,23.018977 -34.061993,-2.240626 6.121519,-34.709617 -1.832817,-51.043727 z"
       id="circle1508"
       inkscape:connector-curvature="0" />
    <circle
       style="opacity:1;fill:#f2f2f2;fill-opacity:1;stroke:none;stroke-width:0.52916664;stroke-linecap:round;stroke-linejoin:miter;stroke-miterlimit:4;stroke-dasharray:none;stroke-dashoffset:0;stroke-opacity:1"
       id="path899"
       cx="88.468735"
       cy="66.777122"
       r="8.3154764" />
    <circle
       style="opacity:1;fill:#ffffff;fill-opacity:1;stroke:none;stroke-width:0.52916664;stroke-linecap:round;stroke-linejoin:miter;stroke-miterlimit:4;stroke-dasharray:none;stroke-dashoffset:0;stroke-opacity:1"
       id="path901"
       cx="124.73214"
       cy="275.07739"
       r="9.8273811" />
    <circle
       style="opacity:1;fill:#ffffff;fill-opacity:1;stroke:#ffffff;stroke-width:0.52916664;stroke-linecap:round;stroke-linejoin:miter;stroke-miterlimit:4;stroke-dasharray:none;stroke-dashoffset:0;stroke-opacity:1"
       id="path903"
       cx="210.15475"
       cy="111.03571"
       r="3.0238097" />
    <circle
       style="opacity:1;fill:#f9f9f9;fill-opacity:1;stroke:#ffffff;stroke-width:0.52916664;stroke-linecap:round;stroke-linejoin:miter;stroke-miterlimit:4;stroke-dasharray:none;stroke-dashoffset:0;stroke-opacity:1"
       id="path907"
       cx="236.61308"
       cy="261.47021"
       r="3.7797618" />
    <circle
       style="opacity:1;fill:#ffffff;fill-opacity:1;stroke:#ffffff;stroke-width:0.52916664;stroke-linecap:round;stroke-linejoin:miter;stroke-miterlimit:4;stroke-dasharray:none;stroke-dashoffset:0;stroke-opacity:1"
       id="path911"
       cx="268.3631"
       cy="185.875"
       r="3.7797618" />
    <ellipse
       style="opacity:1;fill:#cccccc;fill-opacity:1;stroke:none;stroke-width:0.52916664;stroke-linecap:round;stroke-linejoin:miter;stroke-miterlimit:4;stroke-dasharray:none;stroke-dashoffset:0;stroke-opacity:1"
       id="path919"
       cx="169.64726"
       cy="-244.8858"
       rx="13.096207"
       ry="5.3453903"
       transform="rotate(37.715348)" />
    <ellipse
       cy="63.481464"
       cx="32.80011"
       id="circle921"
       style="opacity:1;fill:#f2f2f2;fill-opacity:1;stroke:none;stroke-width:0.52916664;stroke-linecap:round;stroke-linejoin:miter;stroke-miterlimit:4;stroke-dasharray:none;stroke-dashoffset:0;stroke-opacity:1"
       rx="3.779762"
       ry="4.5357146" />
    <ellipse
       style="opacity:1;fill:#e6e6e6;fill-opacity:1;stroke:none;stroke-width:0.57140458;stroke-linecap:round;stroke-linejoin:miter;stroke-miterlimit:4;stroke-dasharray:none;stroke-dashoffset:0;stroke-opacity:1"
       id="path919-1"
       cx="359.02161"
       cy="-396.74243"
       rx="13.661409"
       ry="8.7227278"
       transform="matrix(0.14336279,0.9896702,-0.77503816,0.63191443,0,0)" />
  </g>
  <g
     inkscape:groupmode="layer"
     id="layer1"
     inkscape:label="Rise"
     style="display:none">
    <path
       style="opacity:1;fill:#000000;fill-opacity:1;stroke:none;stroke-width:0.52916664;stroke-linecap:round;stroke-linejoin:miter;stroke-miterlimit:4;stroke-dasharray:none;stroke-dashoffset:0;stroke-opacity:1"
       d="M 241.45921,468.07715 V 245.12333 H 181.96568 L 275.55222,83.027283 369.13876,245.12333 h -49.13138 v 222.95382 z"
       id="rect846"
       inkscape:connector-curvature="0" />
  </g>
  <g
     inkscape:label="Set"
     id="g2082"
     inkscape:groupmode="layer"
     style="display:none">
    <path
       inkscape:connector-curvature="0"
       id="path2080"
       d="M 241.45921,83.027283 V 305.9811 H 181.96568 L 275.55222,468.07715 369.13876,305.9811 H 320.00738 V 83.027283 Z"
       style="opacity:1;fill:#000000;fill-opacity:1;stroke:none;stroke-width:0.52916664;stroke-linecap:round;stroke-linejoin:miter;stroke-miterlimit:4;stroke-dasharray:none;stroke-dashoffset:0;stroke-opacity:1" />
  </g>
  <g
     inkscape:groupmode="layer"
     id="layer11"
     inkscape:label="Waxing Gibbous"
     style="display:none;opacity:0.6">
    <path
       style="opacity:1;fill:#000000;fill-opacity:1;stroke:none;stroke-width:1.99999988;stroke-linecap:round;stroke-linejoin:miter;stroke-miterlimit:4;stroke-dasharray:none;stroke-dashoffset:0;stroke-opacity:1"
       d="m 1041.457,1 a 1040.4572,1040.4572 0 0 0 -88.69333,4.4375 1040.4572,1040.4572 0 0 0 -51.58789,6.261719 1040.4572,1040.4572 0 0 0 -51.40039,7.769531 1040.4572,1040.4572 0 0 0 -50.69531,11.378906 1040.4572,1040.4572 0 0 0 -50.36914,12.861328 1040.4572,1040.4572 0 0 0 -49.33594,16.394532 1040.4572,1040.4572 0 0 0 -48.80469,17.814453 1040.4572,1040.4572 0 0 0 -47.43554,21.228515 1040.4572,1040.4572 0 0 0 -46.82422,22.617186 1040.4572,1040.4572 0 0 0 -45.0625,25.84961 1040.4572,1040.4572 0 0 0 -44.3125,27.16797 1040.4572,1040.4572 0 0 0 -42.30078,30.25195 1040.4572,1040.4572 0 0 0 -41.34961,31.43164 1040.4572,1040.4572 0 0 0 -39.0625,34.31641 1040.4572,1040.4572 0 0 0 -38.02149,35.41992 1040.4572,1040.4572 0 0 0 -35.41992,38.02149 1040.4572,1040.4572 0 0 0 -34.31641,39.0625 1040.4572,1040.4572 0 0 0 -31.42382,41.33789 1040.4572,1040.4572 0 0 0 -30.26758,42.32617 1040.4572,1040.4572 0 0 0 -27.13086,44.25 1040.4572,1040.4572 0 0 0 -25.88867,45.13281 1040.4572,1040.4572 0 0 0 -22.599613,46.7832 A 1040.4572,1040.4572 0 0 0 77.917969,650.57031 1040.4572,1040.4572 0 0 0 60.103516,699.375 1040.4572,1040.4572 0 0 0 43.708984,748.71094 1040.4572,1040.4572 0 0 0 30.847656,799.08008 1040.4572,1040.4572 0 0 0 19.46875,849.77539 1040.4572,1040.4572 0 0 0 11.699219,901.17578 1040.4572,1040.4572 0 0 0 5.4375,952.76367 1040.4572,1040.4572 0 0 0 1,1041.457 a 1040.4572,1040.4572 0 0 0 4.4375,88.6934 1040.4572,1040.4572 0 0 0 6.261719,51.5879 1040.4572,1040.4572 0 0 0 7.769531,51.4004 1040.4572,1040.4572 0 0 0 11.378906,50.6953 1040.4572,1040.4572 0 0 0 12.861328,50.3691 1040.4572,1040.4572 0 0 0 16.394532,49.336 1040.4572,1040.4572 0 0 0 17.814453,48.8047 1040.4572,1040.4572 0 0 0 21.228515,47.4355 1040.4572,1040.4572 0 0 0 22.617186,46.8242 1040.4572,1040.4572 0 0 0 25.84961,45.0625 1040.4572,1040.4572 0 0 0 27.16797,44.3125 1040.4572,1040.4572 0 0 0 30.25195,42.3008 1040.4572,1040.4572 0 0 0 31.4336,41.3516 1040.4572,1040.4572 0 0 0 34.29492,39.039 1040.4572,1040.4572 0 0 0 35.45117,38.0547 1040.4572,1040.4572 0 0 0 37.99805,35.3984 1040.4572,1040.4572 0 0 0 39.07422,34.3262 1040.4572,1040.4572 0 0 0 41.34961,31.4317 1040.4572,1040.4572 0 0 0 42.30273,30.2539 1040.4572,1040.4572 0 0 0 44.2793,27.1464 1040.4572,1040.4572 0 0 0 45.11328,25.879 1040.4572,1040.4572 0 0 0 46.78515,22.5996 1040.4572,1040.4572 0 0 0 47.45508,21.2363 1040.4572,1040.4572 0 0 0 48.80469,17.8144 1040.4572,1040.4572 0 0 0 49.33594,16.3946 1040.4572,1040.4572 0 0 0 50.36914,12.8613 1040.4572,1040.4572 0 0 0 50.69531,11.3789 1040.4572,1040.4572 0 0 0 51.40039,7.7695 1040.4572,1040.4572 0 0 0 51.58789,6.2618 1040.4572,1040.4572 0 0 0 88.69333,4.4375 1040.4572,1040.4572 0 0 0 94.127,-5.0977 A 1040.4572,1040.4572 0 0 1 197.00391,1041.457 1040.4572,1040.4572 0 0 1 1143.334,6.0976562 1040.4572,1040.4572 0 0 0 1041.457,1 Z"
       transform="scale(0.26458333)"
       id="circle2206"
       inkscape:connector-curvature="0" />
  </g>
  <g
     style="display:none;opacity:0.6"
     inkscape:label="Waning Crescent"
     id="g2212"
     inkscape:groupmode="layer">
    <path
       style="opacity:1;fill:#000000;fill-opacity:1;stroke:none;stroke-width:1.99999988;stroke-linecap:round;stroke-linejoin:miter;stroke-miterlimit:4;stroke-dasharray:none;stroke-dashoffset:0;stroke-opacity:1"
       d="M 1041.457,1 A 1040.4572,1040.4572 0 0 0 952.76758,5.4375 1040.4572,1040.4572 0 0 1 1041.457,1 Z m 101.877,5.0976562 A 1040.4572,1040.4572 0 0 0 197.00391,1041.457 1040.4572,1040.4572 0 0 0 1135.584,2076.8164 1040.4572,1040.4572 0 0 0 2081.9141,1041.457 1040.4572,1040.4572 0 0 0 1143.334,6.0976562 Z m -7.75,2070.7187438 a 1040.4572,1040.4572 0 0 1 -94.127,5.0977 1040.4572,1040.4572 0 0 0 94.127,-5.0977 z M 901.14258,11.705078 a 1040.4572,1040.4572 0 0 0 -51.36133,7.763672 1040.4572,1040.4572 0 0 1 51.36133,-7.763672 z M 799.0625,30.851562 A 1040.4572,1040.4572 0 0 0 748.7168,43.707031 1040.4572,1040.4572 0 0 1 799.0625,30.851562 Z M 699.375,60.103516 A 1040.4572,1040.4572 0 0 0 650.57031,77.917969 1040.4572,1040.4572 0 0 1 699.375,60.103516 Z M 603.13477,99.146484 A 1040.4572,1040.4572 0 0 0 556.32422,121.75781 1040.4572,1040.4572 0 0 1 603.13477,99.146484 Z M 511.22852,147.625 a 1040.4572,1040.4572 0 0 0 -44.28711,27.15234 1040.4572,1040.4572 0 0 1 44.28711,-27.15234 z m -86.59375,57.4082 a 1040.4572,1040.4572 0 0 0 -41.33789,31.42188 1040.4572,1040.4572 0 0 1 41.33789,-31.42188 z m -80.41407,65.75 a 1040.4572,1040.4572 0 0 0 -38.01172,35.41016 1040.4572,1040.4572 0 0 1 38.01172,-35.41016 z m -73.4414,73.44336 a 1040.4572,1040.4572 0 0 0 -34.30469,39.04688 1040.4572,1040.4572 0 0 1 34.30469,-39.04688 z m -65.73828,80.39649 a 1040.4572,1040.4572 0 0 0 -30.26758,42.32617 1040.4572,1040.4572 0 0 1 30.26758,-42.32617 z m -57.4004,86.58007 a 1040.4572,1040.4572 0 0 0 -25.88671,45.12891 1040.4572,1040.4572 0 0 1 25.88671,-45.12891 z M 99.152344,603.11914 A 1040.4572,1040.4572 0 0 0 77.917969,650.57031 1040.4572,1040.4572 0 0 1 99.152344,603.11914 Z M 60.103516,699.375 A 1040.4572,1040.4572 0 0 0 43.710938,748.70508 1040.4572,1040.4572 0 0 1 60.103516,699.375 Z M 30.84375,799.09766 A 1040.4572,1040.4572 0 0 0 19.470703,849.76953 1040.4572,1040.4572 0 0 1 30.84375,799.09766 Z M 11.695312,901.20898 A 1040.4572,1040.4572 0 0 0 5.4375,952.75977 1040.4572,1040.4572 0 0 1 11.695312,901.20898 Z M 1,1041.457 A 1040.4572,1040.4572 0 0 0 5.4375,1130.1465 1040.4572,1040.4572 0 0 1 1,1041.457 Z m 10.705078,140.3145 a 1040.4572,1040.4572 0 0 0 7.763672,51.3613 1040.4572,1040.4572 0 0 1 -7.763672,-51.3613 z m 19.146484,102.0801 a 1040.4572,1040.4572 0 0 0 12.855469,50.3457 1040.4572,1040.4572 0 0 1 -12.855469,-50.3457 z m 29.251954,99.6875 a 1040.4572,1040.4572 0 0 0 17.814453,48.8047 1040.4572,1040.4572 0 0 1 -17.814453,-48.8047 z m 39.042968,96.2402 a 1040.4572,1040.4572 0 0 0 22.611326,46.8105 1040.4572,1040.4572 0 0 1 -22.611326,-46.8105 z m 48.478516,91.9062 a 1040.4572,1040.4572 0 0 0 27.15234,44.2872 1040.4572,1040.4572 0 0 1 -27.15234,-44.2872 z m 57.4082,86.5938 a 1040.4572,1040.4572 0 0 0 31.42774,41.3437 1040.4572,1040.4572 0 0 1 -31.42774,-41.3437 z m 65.72852,80.3906 a 1040.4572,1040.4572 0 0 0 35.44922,38.0528 1040.4572,1040.4572 0 0 1 -35.44922,-38.0528 z m 73.46094,73.4629 a 1040.4572,1040.4572 0 0 0 39.05078,34.3067 1040.4572,1040.4572 0 0 1 -39.05078,-34.3067 z m 80.41211,65.7481 a 1040.4572,1040.4572 0 0 0 42.29296,30.2461 1040.4572,1040.4572 0 0 1 -42.29296,-30.2461 z m 86.58203,57.4003 a 1040.4572,1040.4572 0 0 0 45.11328,25.879 1040.4572,1040.4572 0 0 1 -45.11328,-25.879 z m 91.90234,48.4805 a 1040.4572,1040.4572 0 0 0 47.45117,21.2344 1040.4572,1040.4572 0 0 1 -47.45117,-21.2344 z m 96.25586,39.0488 a 1040.4572,1040.4572 0 0 0 49.33008,16.3926 1040.4572,1040.4572 0 0 1 -49.33008,-16.3926 z m 99.72266,29.2598 a 1040.4572,1040.4572 0 0 0 50.67187,11.3731 1040.4572,1040.4572 0 0 1 -50.67187,-11.3731 z m 102.11132,19.1485 a 1040.4572,1040.4572 0 0 0 51.55079,6.2578 1040.4572,1040.4572 0 0 1 -51.55079,-6.2578 z"
       transform="scale(0.26458333)"
       id="circle2214"
       inkscape:connector-curvature="0" />
  </g>
  <g
     style="display:none;opacity:0.6"
     inkscape:label="Waning Gibbous"
     id="g2200"
     inkscape:groupmode="layer">
    <path
       style="opacity:1;fill:#000000;fill-opacity:1;stroke:none;stroke-width:1.99999988;stroke-linecap:round;stroke-linejoin:miter;stroke-miterlimit:4;stroke-dasharray:none;stroke-dashoffset:0;stroke-opacity:1"
       d="m 1042.1699,1.0351562 a 1040.4572,1040.4572 0 0 0 -90.40818,4.5234376 1040.4572,1040.4572 0 0 0 -7.7168,0.9375 A 1040.4572,1040.4572 0 0 1 1887.3359,1041.457 1040.4572,1040.4572 0 0 1 948.75391,2076.8164 1040.4572,1040.4572 0 0 0 1042.3184,2081.8828 1040.4572,1040.4572 0 0 0 2081.9141,1041.457 1040.4572,1040.4572 0 0 0 1042.1699,1.0351562 Z"
       transform="scale(0.26458333)"
       id="circle2202"
       inkscape:connector-curvature="0" />
  </g>
  <g
     inkscape:groupmode="layer"
     id="g2220"
     inkscape:label="Waxing Crescent"
     style="display:none;opacity:0.6">
    <path
       style="opacity:1;fill:#000000;fill-opacity:1;stroke:none;stroke-width:1.99999988;stroke-linecap:round;stroke-linejoin:miter;stroke-miterlimit:4;stroke-dasharray:none;stroke-dashoffset:0;stroke-opacity:1"
       d="M 1041.457,1 A 1040.4572,1040.4572 0 0 0 951.77344,5.5585938 1040.4572,1040.4572 0 0 1 1042.1641,1.0351562 1040.4572,1040.4572 0 0 0 1041.457,1 Z m 88.1758,4.4121094 a 1040.4572,1040.4572 0 0 1 53.2774,6.4648436 1040.4572,1040.4572 0 0 0 -53.2774,-6.4648436 z M 944.04492,6.4960938 A 1040.4572,1040.4572 0 0 0 1,1041.457 a 1040.4572,1040.4572 0 0 0 1040.457,1040.4571 1040.4572,1040.4572 0 0 0 0.8614,-0.031 1040.4572,1040.4572 0 0 1 -93.56449,-5.0664 A 1040.4572,1040.4572 0 0 0 1887.3359,1041.457 1040.4572,1040.4572 0 0 0 944.04492,6.4960938 Z M 1042.3184,2081.8828 a 1040.4572,1040.4572 0 0 0 88.6972,-4.5117 1040.4572,1040.4572 0 0 1 -88.6972,4.5117 z M 1232.6406,19.394531 a 1040.4572,1040.4572 0 0 1 52.3067,11.738281 1040.4572,1040.4572 0 0 0 -52.3067,-11.738281 z m 101.0977,24.195313 a 1040.4572,1040.4572 0 0 1 50.834,16.890625 1040.4572,1040.4572 0 0 0 -50.834,-16.890625 z m 98.1699,34.169922 a 1040.4572,1040.4572 0 0 1 48.8613,21.863281 1040.4572,1040.4572 0 0 0 -48.8613,-21.863281 z m 94.2695,43.796874 a 1040.4572,1040.4572 0 0 1 46.4043,26.61719 1040.4572,1040.4572 0 0 0 -46.4043,-26.61719 z m 89.4317,52.99805 a 1040.4572,1040.4572 0 0 1 43.4433,31.0664 1040.4572,1040.4572 0 0 0 -43.4433,-31.0664 z m 83.707,61.67383 a 1040.4572,1040.4572 0 0 1 40.0176,35.15039 1040.4572,1040.4572 0 0 0 -40.0176,-35.15039 z m 77.1426,69.73632 a 1040.4572,1040.4572 0 0 1 36.1816,38.83594 1040.4572,1040.4572 0 0 0 -36.1816,-38.83594 z m 69.789,77.09375 a 1040.4572,1040.4572 0 0 1 32.045,42.14844 1040.4572,1040.4572 0 0 0 -32.045,-42.14844 z m 61.7168,83.64063 a 1040.4572,1040.4572 0 0 1 27.6426,45.08203 1040.4572,1040.4572 0 0 0 -27.6426,-45.08203 z m 53.0743,89.41797 a 1040.4572,1040.4572 0 0 1 22.9336,47.47461 1040.4572,1040.4572 0 0 0 -22.9336,-47.47461 z m 43.8789,94.27734 a 1040.4572,1040.4572 0 0 1 18.0156,49.34961 1040.4572,1040.4572 0 0 0 -18.0156,-49.34961 z m 34.2441,98.19141 a 1040.4572,1040.4572 0 0 1 12.957,50.73437 1040.4572,1040.4572 0 0 0 -12.957,-50.73437 z m 24.2656,101.11328 a 1040.4572,1040.4572 0 0 1 7.8047,51.63086 1040.4572,1040.4572 0 0 0 -7.8047,-51.63086 z m 14.043,103.01758 a 1040.4572,1040.4572 0 0 1 4.4434,88.7402 1040.4572,1040.4572 0 0 0 -4.4434,-88.7402 z m 0.029,176.9512 a 1040.4572,1040.4572 0 0 1 -6.2402,51.7617 1040.4572,1040.4572 0 0 0 6.2402,-51.7617 z m -13.9766,102.9531 a 1040.4572,1040.4572 0 0 1 -11.4043,51.0059 1040.4572,1040.4572 0 0 0 11.4043,-51.0059 z m -24.1796,101.0351 a 1040.4572,1040.4572 0 0 1 -16.4903,49.7676 1040.4572,1040.4572 0 0 0 16.4903,-49.7676 z m -34.1407,98.1211 a 1040.4572,1040.4572 0 0 1 -21.4336,48.002 1040.4572,1040.4572 0 0 0 21.4336,-48.002 z m -43.7617,94.2247 a 1040.4572,1040.4572 0 0 1 -26.1953,45.7519 1040.4572,1040.4572 0 0 0 26.1953,-45.7519 z m -52.9492,89.3906 a 1040.4572,1040.4572 0 0 1 -30.7031,43.0097 1040.4572,1040.4572 0 0 0 30.7031,-43.0097 z m -61.6113,83.666 a 1040.4572,1040.4572 0 0 1 -34.92,39.8184 1040.4572,1040.4572 0 0 0 34.92,-39.8184 z m -69.6446,77.0918 a 1040.4572,1040.4572 0 0 1 -38.8086,36.2148 1040.4572,1040.4572 0 0 0 38.8086,-36.2148 z m -77.0175,69.7793 a 1040.4572,1040.4572 0 0 1 -42.2696,32.1894 1040.4572,1040.4572 0 0 0 42.2696,-32.1894 z m -83.5704,61.7246 a 1040.4572,1040.4572 0 0 1 -45.3867,27.8789 1040.4572,1040.4572 0 0 0 45.3867,-27.8789 z m -89.33,53.0859 a 1040.4572,1040.4572 0 0 1 -47.9942,23.2325 1040.4572,1040.4572 0 0 0 47.9942,-23.2325 z m -94.1954,43.9082 a 1040.4572,1040.4572 0 0 1 -50.0898,18.3321 1040.4572,1040.4572 0 0 0 50.0898,-18.3321 z m -98.1113,34.2871 a 1040.4572,1040.4572 0 0 1 -51.7012,13.2481 1040.4572,1040.4572 0 0 0 51.7012,-13.2481 z m -101.039,24.3223 a 1040.4572,1040.4572 0 0 1 -52.8086,8.0254 1040.4572,1040.4572 0 0 0 52.8086,-8.0254 z"
       transform="scale(0.26458333)"
       id="circle2222"
       inkscape:connector-curvature="0" />
  </g>
  <g
     inkscape:groupmode="layer"
     id="layer12"
     inkscape:label="New"
     style="display:none;opacity:0.6">
    <circle
       transform="translate(142.95468,155.51522)"
       r="275.28763"
       cy="120.03699"
       cx="132.59753"
       id="circle2227"
       style="opacity:1;fill:#000000;fill-opacity:1;stroke:none;stroke-width:0.52916664;stroke-linecap:round;stroke-linejoin:miter;stroke-miterlimit:4;stroke-dasharray:none;stroke-dashoffset:0;stroke-opacity:1" />
  </g>
  <g
     style="display:none;opacity:0.6"
     inkscape:label="First Quarter"
     id="g2232"
     inkscape:groupmode="layer">
    <path
       style="opacity:1;fill:#000000;fill-opacity:1;stroke:none;stroke-width:0.52916664;stroke-linecap:round;stroke-linejoin:miter;stroke-miterlimit:4;stroke-dasharray:none;stroke-dashoffset:0;stroke-opacity:1"
       id="circle2230"
       transform="translate(142.95468,155.51522)"
       sodipodi:type="arc"
       sodipodi:cx="132.59753"
       sodipodi:cy="120.03699"
       sodipodi:rx="275.28763"
       sodipodi:ry="275.28763"
       sodipodi:start="1.5707963"
       sodipodi:end="4.712389"
       d="m 132.59754,395.32462 a 275.28763,275.28763 0 0 1 -238.40608,-137.64382 275.28763,275.28763 0 0 1 0,-275.287628 275.28763,275.28763 0 0 1 238.40608,-137.643812 l -1e-5,275.28763 z" />
  </g>
  <g
     inkscape:groupmode="layer"
     id="g2236"
     inkscape:label="Third Quarter"
     style="display:none;opacity:0.6">
    <path
       transform="translate(142.95468,155.51522)"
       id="path2234"
       style="opacity:1;fill:#000000;fill-opacity:1;stroke:none;stroke-width:0.52916664;stroke-linecap:round;stroke-linejoin:miter;stroke-miterlimit:4;stroke-dasharray:none;stroke-dashoffset:0;stroke-opacity:1"
       sodipodi:type="arc"
       sodipodi:cx="132.59753"
       sodipodi:cy="120.03699"
       sodipodi:rx="275.28763"
       sodipodi:ry="275.28763"
       sodipodi:start="4.712389"
       sodipodi:end="1.5707963"
       d="M 132.59754,-155.25064 A 275.28763,275.28763 0 0 1 407.88516,120.03699 275.28763,275.28763 0 0 1 132.59753,395.32462 l 0,-275.28763 z" />
  </g>
</svg>
