<?xml version="1.0" encoding="UTF-8" standalone="no"?>
<!-- Created with Inkscape (http://www.inkscape.org/) -->

<svg
   xmlns:dc="http://purl.org/dc/elements/1.1/"
   xmlns:cc="http://creativecommons.org/ns#"
   xmlns:rdf="http://www.w3.org/1999/02/22-rdf-syntax-ns#"
   xmlns:svg="http://www.w3.org/2000/svg"
   xmlns="http://www.w3.org/2000/svg"
   xmlns:sodipodi="http://sodipodi.sourceforge.net/DTD/sodipodi-0.dtd"
   xmlns:inkscape="http://www.inkscape.org/namespaces/inkscape"
   width="122.67683mm"
   height="122.6767mm"
   viewBox="0 0 122.67683 122.6767"
   version="1.1"
   id="svg8"
   inkscape:version="0.92.4 (5da689c313, 2019-01-14)"
   sodipodi:docname="earth.svg">
  <defs
     id="defs2" />
  <sodipodi:namedview
     id="base"
     pagecolor="#ffffff"
     bordercolor="#666666"
     borderopacity="1.0"
     inkscape:pageopacity="0.0"
     inkscape:pageshadow="2"
     inkscape:zoom="0.70710678"
     inkscape:cx="142.9502"
     inkscape:cy="235.79527"
     inkscape:document-units="mm"
     inkscape:current-layer="layer3"
     showgrid="false"
     fit-margin-top="0"
     fit-margin-left="0"
     fit-margin-right="0"
     fit-margin-bottom="0"
     inkscape:window-width="1920"
     inkscape:window-height="1001"
     inkscape:window-x="-9"
     inkscape:window-y="-9"
     inkscape:window-maximized="1" />
  <metadata
     id="metadata5">
    <rdf:RDF>
      <cc:Work
         rdf:about="">
        <dc:format>image/svg+xml</dc:format>
        <dc:type
           rdf:resource="http://purl.org/dc/dcmitype/StillImage" />
        <dc:title />
      </cc:Work>
    </rdf:RDF>
  </metadata>
  <g
     inkscape:groupmode="layer"
     id="layer2"
     inkscape:label="Earth"
     transform="translate(-52.38483,-97.884212)"
     style="display:inline">
    <circle
       style="opacity:1;fill:#0055d4;fill-opacity:1;stroke:none;stroke-width:5;stroke-linecap:round;stroke-linejoin:miter;stroke-miterlimit:4;stroke-dasharray:none;stroke-dashoffset:0;stroke-opacity:0.49803922"
       id="path827"
       cx="113.72318"
       cy="159.22256"
       r="61.338352" />
    <path
       style="fill:#00aa00;fill-opacity:0.91764706;stroke:none;stroke-width:0.99999994px;stroke-linecap:butt;stroke-linejoin:miter;stroke-opacity:1"
       d="M 201.30859 2.7167969 C 199.14955 2.7350857 196.8682 2.9138412 194.5918 3.109375 A 231.82999 231.82999 0 0 0 113.61133 32.712891 C 113.15488 33.911663 112.63648 35.073335 112 36.160156 C 108.32774 42.430733 102.96758 47.572131 99 53.660156 C 95.128547 59.600666 90.547582 65.371558 88.5 72.160156 C 86.425444 79.038216 87.758487 86.516207 87 93.660156 C 86.626723 97.175911 85.555219 100.62505 85.5 104.16016 C 85.405705 110.19633 84.36145 117.00322 87.5 122.16016 C 89.062083 124.7268 90.313532 130.47207 91 127.91016 C 93.463806 118.71509 92.509633 118.92414 90.082031 112.63867 C 87.654429 106.3532 89.366719 99.741788 94 99.160156 C 97.89232 98.671539 95.439846 106.88327 96.5 110.66016 C 97.739258 115.07514 99.256421 119.41896 101 123.66016 C 104.373 131.86487 106.35006 141.26697 112.5 147.66016 C 117.20337 152.54954 123.864 155.74903 130.5 157.16016 C 135.4015 158.20244 140.60469 155.08915 145.5 156.16016 C 151.98407 157.57876 157.2548 162.33625 163 165.66016 C 167.40414 168.20816 171.75282 170.85832 176 173.66016 C 178.89492 175.56991 181.89462 177.37112 184.5 179.66016 C 188.75337 183.39705 190.85844 189.78949 196 192.16016 C 200.08934 194.04569 205.56974 190.46221 209.5 192.66016 C 211.07346 193.54007 212.32614 195.36579 212.5 197.16016 C 212.91798 201.47328 208.70707 204.99833 207.5 209.16016 C 205.85141 214.84434 204.82844 220.75083 204.5 226.66016 C 204.18505 232.32786 207.24127 238.25736 205.5 243.66016 C 204.446 246.93043 198.96183 248.22445 199 251.66016 C 199.04849 256.03469 205.16255 257.96215 207.5 261.66016 C 211.40599 267.83976 213.33102 275.07214 216.5 281.66016 C 219.66653 288.24303 221.3084 296.02125 226.5 301.16016 C 231.79727 306.40365 240.55873 306.65938 246.5 311.16016 C 250.44995 314.15241 255.03381 317.42668 256.5 322.16016 C 257.94363 326.82081 255.64032 331.91621 254.5 336.66016 C 252.60287 344.55253 248.89705 351.90498 246.5 359.66016 C 243.49127 369.39429 240.50621 379.17113 238.5 389.16016 C 236.24891 400.3685 234.43483 411.73627 234 423.16016 C 233.77145 429.16507 231.8235 436.05908 235 441.16016 C 238.23463 446.35455 245.6158 453.06786 251 450.16016 C 257.46749 446.66742 250.35595 435.19087 252.5 428.16016 C 255.02661 419.87498 264.50001 407.66013 265.5 405.66016 C 266.50003 403.66014 278.50253 403.09609 284 399.66016 C 289.49747 396.22423 291.83369 388.80986 297.5 385.66016 C 299.58573 384.50067 302.44163 385.36745 304.5 384.16016 C 310.81574 380.45577 313.83267 372.84763 319 367.66016 C 324.49936 362.13936 330.97607 357.65635 336.5 352.16016 C 339.51217 349.1631 341.63875 345.25968 345 342.66016 C 349.89407 338.87519 357.4954 338.87618 361.5 334.16016 C 365.35508 329.62026 365.46332 322.91437 367 317.16016 C 368.45062 311.72814 367.7414 305.55926 370.5 300.66016 C 374.2025 294.08472 381.99761 290.80998 387 285.16016 C 391.11027 280.51791 395.42591 275.80095 398 270.16016 C 399.56106 266.73934 401.39764 262.8116 400.5 259.16016 C 399.08884 253.4197 393.86346 249.02038 389 245.66016 C 379.24122 238.91771 365.24763 240.41875 355.5 233.66016 C 350.83516 230.42575 348.10669 225.0435 344.5 220.66016 C 340.4316 215.71566 337.73892 209.34168 332.5 205.66016 C 326.59211 201.50853 317.66751 203.13429 312 198.66016 C 309.06025 196.33941 309.01882 191.37704 306 189.16016 C 299.18982 184.15912 289.63887 184.92893 281.5 182.66016 C 270.62785 179.62943 260.26775 172.50671 249 173.16016 C 244.30269 173.43258 240.21977 176.57873 236 178.66016 C 229.64083 181.79682 224.50834 188.08254 217.5 189.16016 C 212.78285 189.88549 207.54878 188.68703 203.5 186.16016 C 200.98265 184.58904 198.96994 181.96457 198 179.16016 C 197.07386 176.48244 198.8448 173.3646 198 170.66016 C 196.42851 165.62942 193.66847 160.10623 189 157.66016 C 185.014 155.57166 178.39231 161.10758 175.5 157.66016 C 173.65078 155.45601 176.27716 151.94499 177 149.16016 C 178.15207 144.72163 181.79858 140.73603 181.5 136.16016 C 181.3543 133.92884 180.61505 130.88583 178.5 130.16016 C 174.48081 128.78112 170.34641 133.04155 167 135.66016 C 164.10938 137.92213 163.16226 142.29674 160 144.16016 C 156.05713 146.48366 150.95579 147.70436 146.5 146.66016 C 142.44324 145.70945 137.92131 143.07692 136.5 139.16016 C 134.51422 133.68789 138.57658 127.65464 140.5 122.16016 C 142.81545 115.54579 143.57822 106.90763 149.5 103.16016 C 153.30255 100.75377 158.56232 103.9065 163 103.16016 C 167.5221 102.3996 171.45947 99.301542 176 98.660156 C 179.13988 98.216629 182.34394 98.852125 185.5 99.160156 C 189.01882 99.503413 193.52203 98.138342 196 100.66016 C 198.82531 103.53547 195.27892 109.29611 197.5 112.66016 C 200.05148 116.52465 205.5634 122.09893 209.5 119.66016 C 211.62991 118.34065 209.22186 114.65585 209 112.16016 C 208.46576 106.14693 204.37693 99.597422 207 94.160156 C 209.99373 87.954512 219.76149 88.162021 224.5 83.160156 C 229.22044 78.177341 229.2183 69.543615 234.5 65.160156 C 236.12225 63.813775 238.70665 64.268503 240.5 63.160156 C 244.3095 60.805737 245.9045 55.471873 250 53.660156 C 253.20443 52.242607 257.08282 53.935262 260.5 53.160156 C 267.20159 51.640068 272.94932 47.23644 279.5 45.160156 C 284.7043 43.510619 294.55497 47.037177 295.5 41.660156 C 296.14834 37.971337 289.15137 37.684169 286 35.660156 C 277.79302 30.389076 270.42025 23.605756 261.5 19.660156 C 253.62551 16.177133 245.06328 12.260818 236.5 13.160156 C 232.79361 13.54941 229.71354 16.272811 226.5 18.160156 C 222.6733 20.407577 219.9332 25.457574 215.5 25.660156 C 210.35754 25.895129 202.47127 23.286367 202 18.160156 C 201.54483 13.2089 214.79097 13.461781 213.5 8.6601562 C 212.18389 3.7650255 207.21462 2.6667682 201.30859 2.7167969 z "
       transform="matrix(0.26458333,0,0,0.26458333,52.38483,97.884212)"
       id="path846" />
    <path
       style="fill:#00aa00;fill-opacity:0.91764706;stroke:none;stroke-width:0.26458332px;stroke-linecap:butt;stroke-linejoin:miter;stroke-opacity:1"
       d="m 102.50121,132.25506 c -0.094,-0.65121 0.97101,-0.94694 1.59025,-1.16931 0.92584,-0.33247 1.96702,-0.2534 2.94665,-0.1637 0.82279,0.0753 1.63744,0.28847 2.40876,0.58465 1.24059,0.47637 2.39153,1.17341 3.50792,1.89428 0.48593,0.31378 1.54281,0.49739 1.37977,1.05237 -0.30199,1.02796 -2.15663,0.48337 -3.20389,0.25724 -0.897,-0.19369 -1.58345,-0.9318 -2.40877,-1.333 -0.68491,-0.33295 -1.35212,-0.77239 -2.10474,-0.88867 -0.91301,-0.14106 -1.84318,0.37445 -2.75956,0.25724 -0.47697,-0.061 -1.28771,-0.0152 -1.35639,-0.4911 z"
       id="path848"
       inkscape:connector-curvature="0"
       sodipodi:nodetypes="sssssssssss" />
    <path
       style="fill:#00aa00;fill-opacity:0.91764706;stroke:none;stroke-width:0.26458332px;stroke-linecap:butt;stroke-linejoin:miter;stroke-opacity:1"
       d="m 115.66986,134.52172 c 0.33618,-0.24566 2.10397,-0.1247 3.10885,0.13229 0.88128,0.22538 1.92726,0.46091 2.4474,1.20716 0.18065,0.25918 0.30304,0.70121 0.0992,0.94258 -0.73055,0.86505 -2.25843,0.25541 -3.38997,0.21497 -0.65597,-0.0234 -1.83555,-0.26458 -1.9513,-0.26458 -0.11576,0 -2.08598,0.38273 -2.11667,-0.33073 -0.0288,-0.66917 1.67562,0.13086 1.9513,-0.47956 0.1715,-0.37974 -0.67342,-0.70217 -0.57877,-1.10794 0.0403,-0.17287 0.42996,-0.31419 0.42996,-0.31419 z"
       id="path850"
       inkscape:connector-curvature="0"
       sodipodi:nodetypes="ssssssssss" />
    <path
       style="fill:#ffffff;fill-opacity:1;stroke:none;stroke-width:0.99999994px;stroke-linecap:butt;stroke-linejoin:miter;stroke-opacity:1"
       d="M 231.83008 0 A 231.82999 231.82999 0 0 0 148.36719 15.576172 C 150.2534 18.534715 154.3368 20.378864 157.5625 21.972656 C 165.67662 25.981752 175.23058 25.923892 184.125 27.597656 C 197.09384 30.038173 210.04408 32.852996 223.1875 34.035156 C 234.80875 35.080385 246.81328 37.200088 258.1875 34.597656 C 266.14356 32.777285 272.6304 26.970582 280.0625 23.597656 C 286.30859 20.762973 297.255 22.447052 299.125 15.847656 C 299.63209 14.058087 300.03829 12.22575 300.36719 10.363281 A 231.82999 231.82999 0 0 0 231.83008 0 z "
       transform="matrix(0.26458333,0,0,0.26458333,52.38483,97.884212)"
       id="path852" />
    <path
       style="fill:#ffffff;fill-opacity:1;stroke:none;stroke-width:0.99999994px;stroke-linecap:butt;stroke-linejoin:miter;stroke-opacity:1"
       d="M 308.29297 439.00781 C 297.61576 438.9761 287.02818 444.84663 276.375 447.03516 C 267.92239 448.77162 259.61165 451.61148 251 452.16016 C 242.91204 452.67546 234.74109 449.05996 226.75 450.41016 C 159.04315 461.85026 240.66962 436.04494 172.125 446.66016 C 165.32014 447.71399 154.90971 446.51813 146.98438 447.3418 A 231.82999 231.82999 0 0 0 231.83008 463.66016 A 231.82999 231.82999 0 0 0 324.81445 443.88672 C 321.15664 441.63112 316.9061 440.13077 312.875 439.41016 C 311.34558 439.13675 309.81828 439.01234 308.29297 439.00781 z "
       transform="matrix(0.26458333,0,0,0.26458333,52.38483,97.884212)"
       id="path854" />
    <path
       style="fill:#deaa87;stroke:none;stroke-width:0.26458332px;stroke-linecap:butt;stroke-linejoin:miter;stroke-opacity:1;fill-opacity:1;opacity:0.5"
       d="m 82.739965,111.06727 c -1.306325,1.2762 -2.280652,2.943 -2.8531,4.67721 -0.598635,1.81354 -0.647189,3.80104 -0.514496,5.70621 0.147935,2.124 0.846074,4.17897 1.449938,6.22069 0.573474,1.93896 0.183515,4.94802 2.057974,5.70621 1.674135,0.67716 3.670611,-1.03025 4.864307,-2.38538 1.274253,-1.44658 1.213283,-3.6602 1.870887,-5.47235 1.008421,-2.77888 3.236813,-5.32301 3.180506,-8.27867 -0.04071,-2.13685 -1.37063,-4.09507 -2.525697,-5.89329 -0.739665,-1.15152 -1.407281,-2.82935 -2.759556,-3.04019 -1.815197,-0.28302 -3.456652,1.47576 -4.770763,2.75956 z"
       id="path866"
       inkscape:connector-curvature="0"
       sodipodi:nodetypes="sssssssssss" />
    <path
       style="fill:#deaa87;stroke:none;stroke-width:0.26458332px;stroke-linecap:butt;stroke-linejoin:miter;stroke-opacity:1;fill-opacity:1;opacity:0.5"
       d="m 146.5765,176.37549 c -1.33355,-2.97827 -6.0063,-3.41825 -9.26042,-3.175 -2.47823,0.18525 -5.39042,1.27687 -6.61458,3.43959 -2.13273,3.7679 1.25402,8.6595 0.79375,12.96458 -0.31167,2.91511 -4.86259,6.90527 -2.38125,8.46667 4.97164,3.12844 9.79784,-6.87403 13.22916,-11.64167 2.12417,-2.95143 5.71938,-6.73532 4.23334,-10.05417 z"
       id="path868"
       inkscape:connector-curvature="0"
       sodipodi:nodetypes="sssssss" />
    <path
       style="fill:#deaa87;stroke:none;stroke-width:0.26458332px;stroke-linecap:butt;stroke-linejoin:miter;stroke-opacity:1;fill-opacity:1;opacity:0.5"
       d="m 109.53483,167.37966 c -1.86667,2.04381 2.26741,5.19523 4.23333,7.14375 2.24543,2.22556 6.6609,2.0021 8.20209,4.7625 1.63433,2.92721 0.42311,6.77291 -0.26459,10.05417 -0.52744,2.51661 -2.22225,4.66626 -2.91041,7.14375 -0.76449,2.75226 -0.75546,5.66713 -1.32292,8.46666 -0.36119,1.78194 -3.00115,4.59215 -1.32292,5.29167 3.14125,1.30934 3.89063,-5.62981 5.29167,-8.73125 2.54933,-5.64338 5.81053,-11.53982 5.55625,-17.72708 -0.12508,-3.04365 -1.47939,-6.13491 -3.43958,-8.46667 -2.14158,-2.54753 -5.5484,-3.69169 -8.46667,-5.29167 -1.79874,-0.98619 -4.17285,-4.16051 -5.55625,-2.64583 z"
       id="path870"
       inkscape:connector-curvature="0"
       sodipodi:nodetypes="ssssssssssss" />
    <path
       id="path879"
       transform="matrix(0.26458333,0,0,0.26458333,52.38483,97.884212)"
       d="m 411.42383,85.441406 c -3.92523,5.27433 -6.42603,12.06754 -8.42383,18.218754 -3.50691,10.79769 -5.65915,23.25295 -2,34 5.40718,15.88104 23.73043,23.92004 36.75,34.5 8.06331,6.55239 13.89802,21.52569 23.32812,26.78711 -5.94803,-41.6392 -23.11241,-80.87565 -49.65429,-113.505864 z"
       style="fill:#00aa00;fill-opacity:0.91764706;stroke:none;stroke-width:0.99999994px;stroke-linecap:butt;stroke-linejoin:miter;stroke-opacity:1"
       inkscape:connector-curvature="0"
       sodipodi:nodetypes="ccsccc" />
    <path
       style="opacity:0.5;fill:#deaa87;fill-opacity:1;stroke:none;stroke-width:0.99999994px;stroke-linecap:butt;stroke-linejoin:miter;stroke-opacity:1"
       d="m 411.42383,85.441406 c -3.92523,5.27433 -6.42603,12.06754 -8.42383,18.218754 -3.50691,10.79769 -5.65915,23.25295 -2,34 5.40718,15.88104 23.23043,23.67004 36.25,34.25 8.06331,6.55239 14.39802,21.77569 23.82812,27.03711 -5.94803,-41.6392 -23.11241,-80.87565 -49.65429,-113.505864 z"
       transform="matrix(0.26458333,0,0,0.26458333,52.38483,97.884212)"
       id="path872"
       inkscape:connector-curvature="0"
       sodipodi:nodetypes="ccsccc" />
  </g>
  <g
     inkscape:groupmode="layer"
     id="layer3"
     inkscape:label="Shadow"
     style="display:inline;opacity:0.4"
     transform="translate(-52.38483,-97.884212)"
     sodipodi:insensitive="true">
    <path
       style="opacity:1;fill:#000000;fill-opacity:1;stroke:none;stroke-width:18.89763832;stroke-linecap:round;stroke-linejoin:miter;stroke-miterlimit:4;stroke-dasharray:none;stroke-dashoffset:0;stroke-opacity:0.49803922"
       d="m 429.82031,369.95703 a 231.82999,231.82999 0 0 0 -36.51953,3.02344 231.82999,231.82999 0 0 1 196.34961,228.80469 231.82999,231.82999 0 0 1 -195.3125,228.80664 231.82999,231.82999 0 0 0 35.48242,3.02343 A 231.82999,231.82999 0 0 0 661.65039,601.78516 231.82999,231.82999 0 0 0 429.82031,369.95703 Z"
       transform="scale(0.26458333)"
       id="circle848"
       inkscape:connector-curvature="0" />
  </g>
</svg>
