<?xml version="1.0" encoding="UTF-8" standalone="no"?>
<!-- Created with Inkscape (http://www.inkscape.org/) -->

<svg
   width="24mm"
   height="24mm"
   viewBox="0 0 24 24"
   version="1.1"
   id="svg1"
   inkscape:version="1.4.2 (ebf0e940d0, 2025-05-08)"
   sodipodi:docname="meteor_shower_radiant.svg"
   xmlns:inkscape="http://www.inkscape.org/namespaces/inkscape"
   xmlns:sodipodi="http://sodipodi.sourceforge.net/DTD/sodipodi-0.dtd"
   xmlns="http://www.w3.org/2000/svg"
   xmlns:svg="http://www.w3.org/2000/svg">
  <sodipodi:namedview
     id="namedview1"
     pagecolor="#ffffff"
     bordercolor="#000000"
     borderopacity="0.25"
     inkscape:showpageshadow="2"
     inkscape:pageopacity="0.0"
     inkscape:pagecheckerboard="true"
     inkscape:deskcolor="#d1d1d1"
     inkscape:document-units="mm"
     inkscape:zoom="5.6568543"
     inkscape:cx="3.5355339"
     inkscape:cy="51.88396"
     inkscape:window-width="2048"
     inkscape:window-height="1067"
     inkscape:window-x="0"
     inkscape:window-y="0"
     inkscape:window-maximized="1"
     inkscape:current-layer="layer1" />
  <defs
     id="defs1" />
  <g
     inkscape:label="Layer 1"
     inkscape:groupmode="layer"
     id="layer1">
    <path
       style="fill:#000000;stroke-width:1.5;stroke-linecap:round;stroke-linejoin:round"
       d="m 12.608105,10.985317 c -0.0046,-0.189537 4.354115,-9.3880821 4.784011,-10.42484817 0.04464,-0.10765244 0.230861,-0.12936101 0.338938,-0.0857611 0.09449,0.0381155 0.208234,0.16914774 0.161335,0.25959203 C 16.207521,3.9835492 12.780204,10.910003 12.740165,10.997602 c -0.01838,0.0402 -0.12962,0.08788 -0.13206,-0.01229 z"
       id="path2"
       sodipodi:nodetypes="sssssss" />
    <path
       style="fill:#000000;stroke-width:0.837873;stroke-linecap:round;stroke-linejoin:round"
       d="m 13.603474,12.483943 c 0.104315,-0.01828 5.547083,1.626284 6.155444,1.777738 0.06317,0.01573 0.09061,0.116793 0.07549,0.18011 -0.01322,0.05536 -0.07616,0.129059 -0.130011,0.110656 -1.934624,-0.661128 -6.045046,-1.979688 -6.096756,-1.994537 -0.02373,-0.0068 -0.0593,-0.06431 -0.0042,-0.07397 z"
       id="path2-3"
       sodipodi:nodetypes="sssssss" />
    <path
       style="fill:#000000;stroke-width:0.837873;stroke-linecap:round;stroke-linejoin:round"
       d="m 16.895742,11.899349 c 0.09616,-0.04438 5.778566,0.151973 6.405427,0.142633 0.06509,-9.66e-4 0.11749,0.0897 0.119084,0.154781 0.0014,0.0569 -0.04058,0.144256 -0.09735,0.140253 -2.039406,-0.143811 -6.35041,-0.366116 -6.404198,-0.367232 -0.02468,-4.98e-4 -0.07379,-0.04698 -0.023,-0.07043 z"
       id="path2-3-3"
       sodipodi:nodetypes="sssssss" />
    <path
       style="fill:#000000;stroke-width:0.837873;stroke-linecap:round;stroke-linejoin:round"
       d="m 7.7398206,16.752749 c -0.02688,0.102437 -3.7910884,4.363781 -4.1824116,4.853585 -0.040636,0.05086 -0.143937,0.03366 -0.1951825,-0.0065 -0.044806,-0.0351 -0.08555,-0.123036 -0.046368,-0.164309 1.4075787,-1.482762 4.3199371,-4.669036 4.3549949,-4.709844 0.016075,-0.01873 0.083179,-0.02709 0.068984,0.02703 z"
       id="path2-3-1"
       sodipodi:nodetypes="sssssss" />
    <path
       style="fill:#000000;stroke-width:0.837873;stroke-linecap:round;stroke-linejoin:round"
       d="M 11.328096,9.3150356 C 11.24862,9.2450278 9.1304524,3.9685128 8.8684307,3.398964 c -0.027205,-0.059142 0.034533,-0.1437298 0.093409,-0.1715021 0.051477,-0.024278 0.1483458,-0.021216 0.1676393,0.032325 0.693131,1.92339 2.2330205,5.956121 2.2537505,6.0057661 0.0096,0.02277 -0.01314,0.086486 -0.05512,0.049513 z"
       id="path2-3-36"
       sodipodi:nodetypes="sssssss" />
    <path
       style="fill:#000000;stroke-width:0.837873;stroke-linecap:round;stroke-linejoin:round"
       d="m 17.359035,7.114463 c 0.03838,-0.09871 4.263701,-3.9033043 4.708294,-4.3453202 0.04617,-0.045895 0.146835,-0.017037 0.193172,0.028686 0.04051,0.039977 0.07097,0.1319842 0.02734,0.1685233 -1.567389,1.3126887 -4.823892,4.1463002 -4.863372,4.1828482 -0.01811,0.01678 -0.08572,0.01743 -0.06546,-0.03471 z"
       id="path2-3-18"
       sodipodi:nodetypes="sssssss" />
    <path
       style="fill:#000000;stroke-width:0.837873;stroke-linecap:round;stroke-linejoin:round"
       d="m 7.8490945,13.040838 c -0.083545,0.06508 -5.6616486,1.166476 -6.2699501,1.318169 -0.063162,0.01578 -0.1348156,-0.06063 -0.1511709,-0.123635 -0.014275,-0.0551 0.0067,-0.149705 0.062894,-0.15872 2.0186561,-0.323868 6.2672121,-1.088028 6.3198439,-1.099177 0.024142,-0.0051 0.082537,0.02896 0.03842,0.06335 z"
       id="path2-3-2"
       sodipodi:nodetypes="sssssss" />
    <path
       style="fill:#000000;stroke-width:0.837873;stroke-linecap:round;stroke-linejoin:round"
       d="m 13.025397,14.913307 c 0.08067,0.06862 2.2899,5.307663 2.561745,5.87259 0.02823,0.05866 -0.03204,0.144305 -0.09043,0.173093 -0.05105,0.02517 -0.147957,0.02379 -0.168173,-0.02942 -0.726336,-1.911099 -2.33583,-5.916557 -2.357416,-5.965837 -0.0099,-0.02261 0.01157,-0.08671 0.05425,-0.05047 z"
       id="path2-3-5"
       sodipodi:nodetypes="sssssss" />
    <path
       style="fill:#000000;stroke-width:0.837873;stroke-linecap:round;stroke-linejoin:round"
       d="M 6.5025022,8.1369058 C 6.3982094,8.1184991 1.8430901,4.7156764 1.322903,4.3657524 1.26889,4.3294134 1.277576,4.2250534 1.313383,4.1706944 c 0.031314,-0.047528 0.115622,-0.095332 0.1599634,-0.05966 1.5929871,1.2815043 5.0069249,3.9233209 5.0504664,3.9549217 0.019985,0.014484 0.033802,0.080687 -0.021288,0.070962 z"
       id="path2-3-0"
       sodipodi:nodetypes="sssssss" />
    <path
       style="fill:#000000;stroke-width:1.69508;stroke-linecap:round;stroke-linejoin:round"
       d="M 11.675272,11.608646 C 11.489726,11.501517 5.1826603,1.8819783 4.4356612,0.85696558 4.3580943,0.75052911 4.4467358,0.55812088 4.5524637,0.47953619 4.644857,0.41083225 4.8382105,0.37824712 4.8978446,0.47673366 7.0402376,4.0147671 11.703937,11.398308 11.764865,11.488498 c 0.02796,0.04139 0.0085,0.176768 -0.08959,0.120152 z"
       id="path2-1"
       sodipodi:nodetypes="sssssss" />
    <path
       style="fill:#000000;stroke-width:1.26236;stroke-linecap:round;stroke-linejoin:round"
       d="m 11.424105,13.486965 c 0.0082,0.159342 -3.4456638,7.998503 -3.7833231,8.880633 -0.035064,0.0916 -0.1912194,0.114167 -0.2831481,0.07999 -0.080368,-0.02988 -0.1790915,-0.137479 -0.1417308,-0.214651 1.3422101,-2.772427 4.065166,-8.678633 4.096822,-8.753252 0.01453,-0.03424 0.10701,-0.07693 0.11138,0.0073 z"
       id="path2-36"
       sodipodi:nodetypes="sssssss" />
    <path
       style="fill:#000000;stroke-width:1.5;stroke-linecap:round;stroke-linejoin:round"
       d="m 12.667146,12.6922 c 0.186656,0.03325 8.332064,6.13768 9.262364,6.765564 0.0966,0.0652 0.08076,0.252011 0.01649,0.34923 -0.05617,0.08499 -0.207253,0.170348 -0.286536,0.106366 -2.848308,-2.298598 -8.952816,-7.037506 -9.030679,-7.094198 -0.03572,-0.02602 -0.06028,-0.144534 0.03836,-0.126962 z"
       id="path2-18"
       sodipodi:nodetypes="sssssss" />
    <path
       style="fill:#000000;stroke-width:1.08224;stroke-linecap:round;stroke-linejoin:round"
       d="m 10.638189,11.933837 c -0.126661,0.05166 -7.447465,-0.532375 -8.2568717,-0.556802 -0.084046,-0.0025 -0.1463829,-0.122586 -0.1446551,-0.20665 0.00151,-0.07349 0.060758,-0.183777 0.133774,-0.175309 2.6231574,0.304247 8.1728758,0.841969 8.2422168,0.84654 0.03182,0.0021 0.09248,0.06492 0.02553,0.09222 z"
       id="path2-2"
       sodipodi:nodetypes="sssssss" />
    <path
       style="fill:#000000;stroke-width:1.5;stroke-linecap:round;stroke-linejoin:round"
       d="m 12.694971,11.626317 c 0.107583,-0.156112 9.037875,-5.0409523 9.994732,-5.6275698 0.09936,-0.060909 0.262825,0.030893 0.324689,0.1296571 0.05409,0.086343 0.06919,0.2592012 -0.02189,0.3048573 -3.272019,1.6402111 -10.114011,5.2331794 -10.197866,5.2805614 -0.03848,0.02174 -0.156523,-0.005 -0.09966,-0.08751 z"
       id="path2-22"
       sodipodi:nodetypes="sssssss" />
    <path
       style="fill:#000000;stroke-width:1.1797;stroke-linecap:round;stroke-linejoin:round"
       d="m 11.212355,12.667693 c -0.08663,0.121361 -7.1725355,3.846498 -7.9325927,4.29535 -0.078923,0.04661 -0.2062732,-0.02771 -0.2536365,-0.106178 -0.041407,-0.0686 -0.051034,-0.204724 0.02118,-0.239443 2.5943005,-1.247255 8.0212622,-3.983667 8.0878182,-4.019836 0.03055,-0.01659 0.123018,0.006 0.07724,0.07011 z"
       id="path2-6"
       sodipodi:nodetypes="sssssss" />
    <path
       style="fill:#000000;stroke-width:1.25464;stroke-linecap:round;stroke-linejoin:round"
       d="m 12.009703,9.9951219 c -0.07224,-0.141173 -0.124215,-8.6550047 -0.17633,-9.59233138 -0.0054,-0.097329 0.127063,-0.181245 0.224333,-0.1875924 0.08504,-0.00555 0.2183,0.051938 0.215765,0.1371168 -0.09108,3.06006318 -0.161386,9.52361298 -0.159784,9.60415698 7.29e-4,0.03697 -0.0658,0.1132571 -0.103985,0.03865 z"
       id="path2-19"
       sodipodi:nodetypes="sssssss" />
    <path
       style="fill:#000000;stroke-width:0.837873;stroke-linecap:round;stroke-linejoin:round"
       d="m 16.646752,18.149581 c 0.09797,0.04022 3.822588,4.336213 4.256182,4.789025 0.04502,0.04703 0.01428,0.147129 -0.03226,0.192605 -0.04073,0.03975 -0.133294,0.06848 -0.169008,0.02417 -1.283037,-1.591752 -4.055027,-4.900868 -4.090827,-4.941026 -0.01643,-0.01842 -0.01581,-0.08604 0.03593,-0.06479 z"
       id="path2-3-22"
       sodipodi:nodetypes="sssssss" />
    <path
       style="fill:#000000;stroke-width:0.837873;stroke-linecap:round;stroke-linejoin:round"
       d="M 11.498585,11.959603 C 11.396828,11.930253 7.2276254,8.0642433 6.7474144,7.6612063 c -0.04986,-0.04185 -0.03017,-0.144707 0.0112,-0.194969 0.03617,-0.04395 0.125066,-0.08255 0.165381,-0.04239 1.448339,1.442974 4.5633546,4.4314257 4.6033056,4.4674587 0.01834,0.01652 0.02507,0.08381 -0.02868,0.06831 z"
       id="path2-3-6"
       sodipodi:nodetypes="sssssss" />
  </g>
</svg>
