<?xml version="1.0" encoding="UTF-8" standalone="no"?>
<!-- Created with Inkscape (http://www.inkscape.org/) -->

<svg
   xmlns:dc="http://purl.org/dc/elements/1.1/"
   xmlns:cc="http://creativecommons.org/ns#"
   xmlns:rdf="http://www.w3.org/1999/02/22-rdf-syntax-ns#"
   xmlns:svg="http://www.w3.org/2000/svg"
   xmlns="http://www.w3.org/2000/svg"
   xmlns:sodipodi="http://sodipodi.sourceforge.net/DTD/sodipodi-0.dtd"
   xmlns:inkscape="http://www.inkscape.org/namespaces/inkscape"
   width="158.07619mm"
   height="158.07619mm"
   viewBox="0 0 158.07619 158.07619"
   version="1.1"
   id="svg8"
   inkscape:version="0.92.4 (5da689c313, 2019-01-14)"
   sodipodi:docname="meteor.svg">
  <defs
     id="defs2" />
  <sodipodi:namedview
     id="base"
     pagecolor="#ffffff"
     bordercolor="#666666"
     borderopacity="1.0"
     inkscape:pageopacity="0.0"
     inkscape:pageshadow="2"
     inkscape:zoom="1.4"
     inkscape:cx="301.40717"
     inkscape:cy="217.80488"
     inkscape:document-units="mm"
     inkscape:current-layer="g4547"
     showgrid="false"
     inkscape:window-width="1920"
     inkscape:window-height="1001"
     inkscape:window-x="-9"
     inkscape:window-y="-9"
     inkscape:window-maximized="1"
     fit-margin-top="0"
     fit-margin-left="0"
     fit-margin-right="0"
     fit-margin-bottom="0" />
  <metadata
     id="metadata5">
    <rdf:RDF>
      <cc:Work
         rdf:about="">
        <dc:format>image/svg+xml</dc:format>
        <dc:type
           rdf:resource="http://purl.org/dc/dcmitype/StillImage" />
        <dc:title></dc:title>
      </cc:Work>
    </rdf:RDF>
  </metadata>
  <g
     inkscape:label="Layer 1"
     inkscape:groupmode="layer"
     id="layer1"
     transform="translate(-18.898588,-19.225052)">
    <g
       id="g4547"
       transform="translate(-8.5852015e-7,-19.636078)">
      <path
         style="fill:#ff6d00;fill-opacity:1;stroke:none;stroke-width:0.26458332px;stroke-linecap:butt;stroke-linejoin:miter;stroke-opacity:1"
         d="m 18.898588,58.497205 c 20.985156,21.910095 41.744559,44.081095 61.50378,67.098815 -2.246159,-0.36548 -10.592133,-4.2859 -4.622115,-0.2339 5.589162,3.74112 11.584538,7.11713 15.346392,12.8906 5.296688,6.54807 10.815525,12.9924 14.989715,20.32193 7.4465,9.75178 17.61799,17.53335 30.07451,18.55566 18.14362,2.11598 36.38661,-11.14083 39.91599,-29.07778 4.14003,-17.19685 -5.99773,-36.2344 -22.48476,-42.52739 -4.5992,-1.42609 -9.47842,-1.84965 -13.91075,-3.90414 -4.69655,-1.924792 -9.79593,-3.093716 -14.23097,-5.509187 -3.99554,-2.923876 -7.99107,-5.847755 -11.98661,-8.771631 -0.066,2.066245 1.66889,6.470407 -1.7873,4.135641 C 87.369046,82.595396 62.923856,73.931239 38.653733,64.915737 c -2.62413,-1.707965 -5.248259,-3.415927 -7.872389,-5.123892 1.066223,3.909042 -1.637842,2.512878 -4.073334,1.494626 -2.603141,-0.929756 -5.206282,-1.85951 -7.809422,-2.789266 z"
         id="path4522"
         inkscape:connector-curvature="0" />
      <path
         style="fill:#ffff00;fill-opacity:1;stroke:none;stroke-width:0.26458332px;stroke-linecap:butt;stroke-linejoin:miter;stroke-opacity:1"
         d="m 38.553572,73.238094 c 11.213293,9.575395 22.426586,19.150791 33.639879,28.726186 -2.771825,-0.25198 -5.543651,-0.50397 -8.315476,-0.75595 12.021277,11.98823 24.39576,23.7732 34.795421,37.23333 5.488834,8.30078 9.025594,18.23287 17.294874,24.36773 8.55314,7.20797 19.6961,13.61399 31.28387,10.99807 11.05895,-1.81034 21.33568,-9.5899 25.37063,-20.11448 1.24532,-5.9581 -1.00631,-12.04725 0.29183,-18.05343 1.71844,-7.59785 -2.7989,-15.02624 -9.86992,-17.89991 -9.16173,-4.95826 -19.0156,-8.35265 -29.1041,-10.84786 C 114.94145,100.88754 96.498686,93.249678 77.86149,86.223355 66.317631,81.74724 54.789181,77.231324 43.278274,72.671129 c 2.222805,3.063462 -1.033216,1.489784 -2.966186,1.035903 -0.586172,-0.156313 -1.172344,-0.312625 -1.758516,-0.468938 z"
         id="path4529"
         inkscape:connector-curvature="0" />
      <g
         transform="translate(-1.6036172,-0.80180854)"
         id="g4539">
        <path
           style="fill:#b3b3b3;fill-opacity:1;stroke:none;stroke-width:0.26458332px;stroke-linecap:butt;stroke-linejoin:miter;stroke-opacity:1"
           d="m 134.74851,119.35119 c 1.88686,-2.82506 4.22596,-6.42187 8.09069,-6.2117 5.17501,0.26946 9.21726,3.94739 13.72703,6.07188 5.23506,2.84473 11.06858,5.91371 13.57005,11.66103 1.16977,3.86046 -0.83645,7.79472 -0.10908,11.7152 0.49321,4.91965 1.9285,10.43568 -1.08746,14.86872 -3.64879,5.51268 -9.8167,8.46004 -15.11631,12.09913 -4.11611,2.67181 -9.101,4.75076 -14.07451,3.49578 -8.39401,-1.66588 -15.86805,-8.22624 -17.64999,-16.746 -1.25313,-5.33768 -1.22459,-11.36552 1.97256,-16.05332 2.71718,-4.26533 5.98042,-8.31295 7.34534,-13.27762 0.89337,-2.62404 1.73673,-5.32216 3.33168,-7.6231 z"
           id="path4518"
           inkscape:connector-curvature="0" />
        <path
           style="fill:#333333;fill-opacity:1;stroke:none;stroke-width:0.26458332px;stroke-linecap:butt;stroke-linejoin:miter;stroke-opacity:1"
           d="m 142.49702,128.6116 c -1.74171,0.5181 -2.84322,2.11332 -3.68251,3.62368 -0.68726,1.28217 -1.29693,2.60437 -2.01952,3.86804 -0.47951,0.97442 -1.08004,2.0218 -0.92973,3.14768 0.15006,0.92949 1.2932,1.4353 2.11446,1.02079 1.27847,-0.59643 2.13232,-1.7781 3.06607,-2.78982 1.26183,-1.57045 3.05474,-2.54432 4.55038,-3.85633 0.87433,-0.77524 1.80585,-1.7728 1.7157,-3.02746 -0.026,-0.95125 -0.84235,-1.63876 -1.69388,-1.89733 -0.99884,-0.32604 -2.10578,-0.36527 -3.12097,-0.0892 z"
           id="path4525"
           inkscape:connector-curvature="0" />
        <path
           style="fill:#333333;fill-opacity:1;stroke:none;stroke-width:0.26458332px;stroke-linecap:butt;stroke-linejoin:miter;stroke-opacity:1"
           d="m 143.92464,164.03341 c 0.7307,-0.72703 1.8283,-0.74925 2.79378,-0.71349 1.09262,0.0304 2.24566,0.19459 3.28163,-0.2493 1.05031,-0.55923 1.51248,-1.76204 2.44633,-2.45928 0.36326,-0.30788 0.97204,-0.22976 1.2048,0.20048 0.26467,0.56895 -0.0207,1.19927 -0.27324,1.71916 -0.40817,0.80383 -1.02149,1.52595 -1.84872,1.91675 -1.32566,0.67248 -2.83214,0.80971 -4.2217,1.30169 -0.9382,0.27052 -1.9439,0.62402 -2.92261,0.35325 -0.4564,-0.14204 -0.96255,-0.5143 -0.90334,-1.05003 0.0234,-0.37514 0.1807,-0.74871 0.44307,-1.01923 z"
           id="path4527"
           inkscape:connector-curvature="0" />
      </g>
    </g>
  </g>
</svg>
