<?xml version="1.0" encoding="UTF-8" standalone="no"?>
<!-- Created with Inkscape (http://www.inkscape.org/) -->

<svg
   xmlns:dc="http://purl.org/dc/elements/1.1/"
   xmlns:cc="http://creativecommons.org/ns#"
   xmlns:rdf="http://www.w3.org/1999/02/22-rdf-syntax-ns#"
   xmlns:svg="http://www.w3.org/2000/svg"
   xmlns="http://www.w3.org/2000/svg"
   xmlns:sodipodi="http://sodipodi.sourceforge.net/DTD/sodipodi-0.dtd"
   xmlns:inkscape="http://www.inkscape.org/namespaces/inkscape"
   width="551.10443mm"
   height="551.10443mm"
   viewBox="0 0 551.10443 551.10443"
   version="1.1"
   id="svg8"
   inkscape:version="0.92.4 (5da689c313, 2019-01-14)"
   sodipodi:docname="moon.svg">
  <defs
     id="defs2" />
  <sodipodi:namedview
     id="base"
     pagecolor="#ffffff"
     bordercolor="#666666"
     borderopacity="1.0"
     inkscape:pageopacity="0.0"
     inkscape:pageshadow="2"
     inkscape:zoom="0.5"
     inkscape:cx="693.07666"
     inkscape:cy="1418.8743"
     inkscape:document-units="mm"
     inkscape:current-layer="layer2"
     showgrid="false"
     fit-margin-top="0"
     fit-margin-left="0"
     fit-margin-right="0"
     fit-margin-bottom="0"
     inkscape:window-width="1920"
     inkscape:window-height="991"
     inkscape:window-x="-9"
     inkscape:window-y="-9"
     inkscape:window-maximized="1"
     showguides="true"
     inkscape:guide-bbox="true">
    <inkscape:grid
       type="xygrid"
       id="grid2164" />
  </sodipodi:namedview>
  <metadata
     id="metadata5">
    <rdf:RDF>
      <cc:Work
         rdf:about="">
        <dc:format>image/svg+xml</dc:format>
        <dc:type
           rdf:resource="http://purl.org/dc/dcmitype/StillImage" />
        <dc:title />
      </cc:Work>
    </rdf:RDF>
  </metadata>
  <g
     inkscape:groupmode="layer"
     id="layer2"
     inkscape:label="Moon"
     transform="translate(142.95468,155.51522)"
     style="display:inline">
    <path
       style="opacity:1;fill:#ececec;fill-opacity:1;stroke:none;stroke-width:0.52916664;stroke-linecap:round;stroke-linejoin:miter;stroke-miterlimit:4;stroke-dasharray:none;stroke-dashoffset:0;stroke-opacity:1"
       d="M 407.88516,120.03699 C 414.66356,298.5592 219.62637,442.04511 51.244477,383.0293 -121.19341,336.7143 -200.93992,108.07245 -94.60715,-35.4021 0.60080383,-186.511 242.57926,-195.08018 348.23774,-51.084547 c 38.4271,48.1750689 59.79748,109.506599 59.64742,171.121537 z"
       id="path837"
       inkscape:connector-curvature="0" />
    <path
       style="opacity:1;fill:#f2f2f2;fill-opacity:1;stroke:none;stroke-width:0.52916664;stroke-linecap:round;stroke-linejoin:miter;stroke-miterlimit:4;stroke-dasharray:none;stroke-dashoffset:0;stroke-opacity:1"
       d="M 96.784211,66.777122 C 97.265596,78.065304 78.59042,77.11525 80.194801,65.94696 c 0.979125,-10.3164 16.601376,-9.584779 16.58941,0.830162 z"
       id="path899"
       inkscape:connector-curvature="0" />
    <path
       style="opacity:1;fill:#ffffff;fill-opacity:1;stroke:none;stroke-width:0.52916664;stroke-linecap:round;stroke-linejoin:miter;stroke-miterlimit:4;stroke-dasharray:none;stroke-dashoffset:0;stroke-opacity:1"
       d="m 134.55952,275.07739 c 0.60815,12.68681 -20.26282,12.68351 -19.65476,0 0.14462,-12.88692 19.44017,-12.98796 19.65476,0 z"
       id="path901"
       inkscape:connector-curvature="0" />
    <path
       style="opacity:1;fill:#ffffff;fill-opacity:1;stroke:#ffffff;stroke-width:0.52916664;stroke-linecap:round;stroke-linejoin:miter;stroke-miterlimit:4;stroke-dasharray:none;stroke-dashoffset:0;stroke-opacity:1"
       d="m 213.17856,111.03571 c -0.91028,7.24363 -10.51806,-0.85507 -3.53775,-2.97981 1.78929,-0.35354 3.58257,1.15483 3.53775,2.97981 z"
       id="path903"
       inkscape:connector-curvature="0" />
    <path
       style="opacity:1;fill:#f9f9f9;fill-opacity:1;stroke:#ffffff;stroke-width:0.52916664;stroke-linecap:round;stroke-linejoin:miter;stroke-miterlimit:4;stroke-dasharray:none;stroke-dashoffset:0;stroke-opacity:1"
       d="m 240.39284,261.47021 c -0.29603,7.44324 -11.76069,1.87021 -6.12929,-2.96078 2.35011,-1.9887 6.22392,-0.12578 6.12929,2.96078 z"
       id="path907"
       inkscape:connector-curvature="0" />
    <path
       style="opacity:1;fill:#ffffff;fill-opacity:1;stroke:#ffffff;stroke-width:0.52916664;stroke-linecap:round;stroke-linejoin:miter;stroke-miterlimit:4;stroke-dasharray:none;stroke-dashoffset:0;stroke-opacity:1"
       d="m 272.14286,185.875 c -0.29604,7.44324 -11.76069,1.8702 -6.1293,-2.96079 2.35011,-1.9887 6.22393,-0.12578 6.1293,2.96079 z"
       id="path911"
       inkscape:connector-curvature="0" />
    <path
       style="opacity:1;fill:#cccccc;fill-opacity:1;stroke:none;stroke-width:0.52916664;stroke-linecap:round;stroke-linejoin:miter;stroke-miterlimit:4;stroke-dasharray:none;stroke-dashoffset:0;stroke-opacity:1"
       d="m 294.36718,-81.927984 c -8.57201,3.059156 -19.28095,-6.308965 -21.21694,-14.599845 3.76145,-6.414751 13.24904,1.48539 17.04255,4.91627 2.14763,2.463771 5.92402,6.114192 4.17439,9.683575 z"
       id="path919"
       inkscape:connector-curvature="0" />
    <path
       style="opacity:1;fill:#f2f2f2;fill-opacity:1;stroke:none;stroke-width:0.52916664;stroke-linecap:round;stroke-linejoin:miter;stroke-miterlimit:4;stroke-dasharray:none;stroke-dashoffset:0;stroke-opacity:1"
       d="m 36.579872,63.481464 c 0.449439,6.812273 -9.639452,4.751519 -7.390707,-1.340395 1.086233,-5.043101 7.720793,-3.503544 7.390707,1.340395 z"
       id="circle921"
       inkscape:connector-curvature="0" />
    <path
       style="opacity:1;fill:#e6e6e6;fill-opacity:1;stroke:none;stroke-width:0.52916664;stroke-linecap:round;stroke-linejoin:miter;stroke-miterlimit:4;stroke-dasharray:none;stroke-dashoffset:0;stroke-opacity:1"
       d="m 360.9194,118.12601 c -10.29779,6.2098 -13.12152,-22.066036 -1.83175,-28.065632 7.55547,-0.458766 10.19381,18.995222 1.83175,28.065632 z"
       id="path919-1"
       inkscape:connector-curvature="0" />
    <path
       style="display:inline;opacity:1;fill:#cccccc;fill-opacity:1;stroke:none;stroke-width:0.52916664;stroke-linecap:round;stroke-linejoin:miter;stroke-miterlimit:4;stroke-dasharray:none;stroke-dashoffset:0;stroke-opacity:1"
       d="m 52.641108,-142.87192 c -71.094918,20.46709 -119.589512,56.180638 -166.600938,139.0157743 -2.17193,72.9670187 -12.21212,106.8081757 62.267453,117.6976357 28.106639,40.21133 -44.10777,75.41681 16.58872,108.52423 C 136.86451,277.04726 91.050455,68.503739 230.37747,56.848108 c 28.19987,14.010947 1.63666,48.572462 9.04137,72.000762 57.73951,41.53033 77.14527,2.86737 66.30828,92.85396 -10.22371,29.97187 26.14306,51.98272 46.51362,26.5683 62.01553,-73.75658 -57.45924,-125.51715 -53.40318,-196.789071 3.6068,-63.377283 -61.64075,-120.112503 -79.4857,-68.054593 -4.97525,29.926161 -24.9532,64.077564 -58.47019,65.684437 -61.201671,-39.668995 66.25772,-51.201775 53.18757,-103.443077 -9.47147,-33.16034 -42.63895,-61.856976 -78.47121,-56.342606 -68.762718,5.3141 -70.573285,23.383241 -82.956922,-32.19814 z"
       id="circle1508-5"
       inkscape:connector-curvature="0"
       sodipodi:nodetypes="ccccccccsccccc" />
  </g>
  <g
     inkscape:groupmode="layer"
     id="layer1"
     inkscape:label="Rise"
     style="display:none">
    <path
       style="display:inline;opacity:1;fill:#000000;fill-opacity:1;stroke:none;stroke-width:0.5291667;stroke-linecap:round;stroke-linejoin:miter;stroke-miterlimit:4;stroke-dasharray:none;stroke-dashoffset:0;stroke-opacity:1"
       d="m 275.55223,105.55221 c -30.62659,47.71472 -61.25318,95.42944 -91.87977,143.14416 16.1901,0 32.3802,0 48.5703,0 0,65.61862 0,131.23723 0,196.85585 28.87298,0 57.74596,0 86.61894,0 0,-65.61862 0,-131.23723 0,-196.85585 16.19009,0 32.38018,0 48.57027,0 -30.62659,-47.71471 -61.25315,-95.42945 -91.87974,-143.14416 z"
       id="path843"
       inkscape:connector-curvature="0" />
  </g>
  <g
     inkscape:label="Set"
     id="g850"
     inkscape:groupmode="layer"
     style="display:none">
    <path
       style="display:inline;opacity:1;fill:#000000;fill-opacity:1;stroke:none;stroke-width:0.5291667;stroke-linecap:round;stroke-linejoin:miter;stroke-miterlimit:4;stroke-dasharray:none;stroke-dashoffset:0;stroke-opacity:1"
       d="m 275.55223,445.55222 c -30.62659,-47.71472 -61.25318,-95.42944 -91.87977,-143.14416 16.1901,0 32.3802,0 48.5703,0 0,-65.61862 0,-131.23723 0,-196.85585 28.87298,0 57.74596,0 86.61894,0 0,65.61862 0,131.23723 0,196.85585 16.19009,0 32.38018,0 48.57027,0 -30.62659,47.71471 -61.25315,95.42945 -91.87974,143.14416 z"
       id="path848"
       inkscape:connector-curvature="0" />
  </g>
  <g
     inkscape:groupmode="layer"
     id="layer12"
     inkscape:label="New"
     style="display:none;opacity:0.6">
    <path
       style="opacity:1;fill:#000000;fill-opacity:1;stroke:none;stroke-width:0.52916664;stroke-linecap:round;stroke-linejoin:miter;stroke-miterlimit:4;stroke-dasharray:none;stroke-dashoffset:0;stroke-opacity:1"
       d="m 550.83984,275.55221 c 6.7784,178.52221 -188.25879,322.00812 -356.64068,262.99231 -172.43789,-46.315 -252.1844,-274.95685 -145.85163,-418.4314 95.20795,-151.1089 337.18641,-159.67808 442.84489,-15.68245 38.4271,48.17507 59.79748,109.5066 59.64742,171.12154 z"
       id="circle2227"
       inkscape:connector-curvature="0" />
  </g>
  <g
     style="display:none;opacity:0.6"
     inkscape:label="Waning Gibbous"
     id="g969"
     inkscape:groupmode="layer">
    <path
       style="opacity:1;fill:#000000;fill-opacity:1;stroke:none;stroke-width:1.99999988;stroke-linecap:round;stroke-linejoin:miter;stroke-miterlimit:4;stroke-dasharray:none;stroke-dashoffset:0;stroke-opacity:1"
       d="M 1042.7207,5.3730469 C 1005.6079,5.4370289 968.49105,7.339812 931.57227,11.066406 1202.645,38.526404 1462.2665,165.4584 1630.4746,394.69922 c 145.2363,182.079 226.0047,413.88245 225.4375,646.75778 20.1211,529.9274 -430.2638,978.1708 -932.8164,1038.0977 584.3917,71.4204 1181.9279,-429.4644 1158.8184,-1038.0977 0.5671,-232.87533 -80.2032,-464.67878 -225.4395,-646.75778 C 1664.6046,133.21109 1353.7956,4.8367568 1042.7207,5.3730469 Z"
       transform="scale(0.26458333)"
       id="path967"
       inkscape:connector-curvature="0" />
  </g>
  <g
     inkscape:groupmode="layer"
     id="g1050"
     inkscape:label="Waxing Gibbous"
     style="display:none;opacity:0.6">
    <path
       style="display:inline;opacity:1;fill:#000000;fill-opacity:1;stroke:none;stroke-width:1.99999988;stroke-linecap:round;stroke-linejoin:miter;stroke-miterlimit:4;stroke-dasharray:none;stroke-dashoffset:0;stroke-opacity:1"
       d="M 1042.7207,5.3730469 C 706.35514,5.9529378 369.67915,157.25588 182.73047,453.9707 c -401.88764,542.26602 -100.483759,1406.4238 551.25,1581.4727 83.59976,29.3007 168.93933,45.3879 254.05859,49.7089 0.0632,0 0.12631,0.01 0.18946,0.01 29.72978,1.5031 59.43078,1.5695 89.02348,0.2617 0.072,0 0.1432,0 0.2148,-0.01 24.0255,-1.0671 47.9793,-3.036 71.8144,-5.8828 -63.4081,-7.7612 -126.6615,-22.2588 -188.94917,-44.0898 C 308.59824,1860.3945 7.1943641,996.23672 409.08203,453.9707 575.37067,190.04639 860.12186,41.176077 1157.7461,11.085938 1119.5571,7.2112886 1081.1414,5.30681 1042.7207,5.3730469 Z"
       transform="scale(0.26458333)"
       id="path1055"
       inkscape:connector-curvature="0" />
  </g>
  <g
     inkscape:groupmode="layer"
     id="g1000"
     inkscape:label="Waxing Crescent"
     style="display:none;opacity:0.6">
    <path
       style="display:inline;opacity:1;fill:#000000;fill-opacity:1;stroke:none;stroke-width:1.99999988;stroke-linecap:round;stroke-linejoin:miter;stroke-miterlimit:4;stroke-dasharray:none;stroke-dashoffset:0;stroke-opacity:1"
       d="M 931.57227,11.066406 C 633.8836,41.115194 349.05224,189.9938 182.73047,453.9707 c -401.88764,542.26602 -100.483759,1406.4238 551.25,1581.4727 62.34262,21.8503 125.65277,36.3552 189.11719,44.1113 502.55184,-59.9278 952.93554,-508.171 932.81444,-1038.0977 0.5672,-232.8753 -80.2012,-464.67878 -225.4375,-646.75778 C 1462.2673,165.45949 1202.6475,38.527219 931.57617,11.066406 c -0.001,1.3e-4 -0.003,-1.3e-4 -0.004,0 z M 1060.1875,2086.0293 c -706.79167,-2.0766 -353.39583,-1.0383 0,0 z m -0.2617,0.01 c -706.6172,-2.0818 -353.3086,-1.0409 0,0 z"
       id="path1036"
       inkscape:connector-curvature="0"
       sodipodi:nodetypes="ccccccccccccc"
       transform="scale(0.26458333)" />
  </g>
  <g
     style="display:none;opacity:0.6"
     inkscape:label="Waning Crescent"
     id="g1046"
     inkscape:groupmode="layer">
    <path
       sodipodi:nodetypes="ccccccccccccc"
       inkscape:connector-curvature="0"
       id="path1044"
       d="M 306.36736,2.9279866 C 227.6039,10.878395 152.24227,50.269192 108.2363,120.11308 1.9035214,263.58763 81.649962,492.22937 254.08786,538.54439 c 16.49482,5.78123 33.24563,9.61898 50.03726,11.67112 C 437.09196,534.35961 556.2563,415.76193 550.93258,275.55216 551.08266,213.93724 529.71268,152.6059 491.28549,104.43083 446.78042,43.777823 378.08934,10.19366 306.36839,2.9279866 c -2.7e-4,3.43e-5 -7.9e-4,-3.44e-5 -10e-4,0 z M 340.3968,551.92858 c -187.00529,-0.54944 -93.50264,-0.27472 0,0 z m -0.0692,0.003 c -186.95913,-0.55081 -93.47956,-0.2754 0,0 z"
       style="display:inline;opacity:1;fill:#000000;fill-opacity:1;stroke:none;stroke-width:0.52916664;stroke-linecap:round;stroke-linejoin:miter;stroke-miterlimit:4;stroke-dasharray:none;stroke-dashoffset:0;stroke-opacity:1" />
  </g>
  <g
     style="display:none;opacity:0.6"
     inkscape:label="Third Quarter"
     id="g1061"
     inkscape:groupmode="layer">
    <path
       style="opacity:1;fill:#000000;fill-opacity:1;stroke:none;stroke-width:1.99999988;stroke-linecap:round;stroke-linejoin:miter;stroke-miterlimit:4;stroke-dasharray:none;stroke-dashoffset:0;stroke-opacity:1"
       d="m 1042.7207,5.3730469 c -0.2767,4.769e-4 -0.5534,0.00323 -0.8301,0.00391 V 2086.3281 C 1585.6261,2082.585 2103.4575,1608.8439 2081.9141,1041.457 2082.4812,808.58167 2001.7109,576.77822 1856.4746,394.69922 1664.6046,133.21109 1353.7956,4.8367568 1042.7207,5.3730469 Z"
       id="path1059"
       inkscape:connector-curvature="0"
       transform="scale(0.26458333)" />
  </g>
  <g
     inkscape:groupmode="layer"
     id="g1073"
     inkscape:label="First Quarter"
     style="display:none;opacity:0.6">
    <path
       style="display:inline;opacity:1;fill:#000000;fill-opacity:1;stroke:none;stroke-width:0.52916664;stroke-linecap:round;stroke-linejoin:miter;stroke-miterlimit:4;stroke-dasharray:none;stroke-dashoffset:0;stroke-opacity:1"
       d="M 275.66688,1.4226522 C 186.87464,0.99935616 95.916519,43.433224 48.347436,120.11308 -13.040903,201.76777 -12.96904,317.98704 34.303634,406.22336 c 33.391075,64.8689 93.697176,116.13422 164.925776,134.02151 24.618,8.03545 50.54906,11.95718 76.43747,11.76277 0,-183.52834 0,-367.05666 0,-550.5849878 z m 0,550.5849878 c -34.99677,-0.11467 -69.99354,-0.22934 -104.99031,-0.34399 34.99677,0.11465 69.99354,0.22932 104.99031,0.34399 z"
       id="path1075"
       inkscape:connector-curvature="0" />
  </g>
</svg>
