<?xml version="1.0" encoding="UTF-8" standalone="no"?>
<!-- Created with Inkscape (http://www.inkscape.org/) -->

<svg
   xmlns:dc="http://purl.org/dc/elements/1.1/"
   xmlns:cc="http://creativecommons.org/ns#"
   xmlns:rdf="http://www.w3.org/1999/02/22-rdf-syntax-ns#"
   xmlns:svg="http://www.w3.org/2000/svg"
   xmlns="http://www.w3.org/2000/svg"
   xmlns:sodipodi="http://sodipodi.sourceforge.net/DTD/sodipodi-0.dtd"
   xmlns:inkscape="http://www.inkscape.org/namespaces/inkscape"
   width="198.18491mm"
   height="201.1765mm"
   viewBox="0 0 198.1849 201.17649"
   version="1.1"
   id="svg1517"
   inkscape:version="0.92.4 (5da689c313, 2019-01-14)"
   sodipodi:docname="sun.svg">
  <defs
     id="defs1511" />
  <sodipodi:namedview
     id="base"
     pagecolor="#ffffff"
     bordercolor="#666666"
     borderopacity="1.0"
     inkscape:pageopacity="0.0"
     inkscape:pageshadow="2"
     inkscape:zoom="0.7"
     inkscape:cx="-114.76018"
     inkscape:cy="216.64529"
     inkscape:document-units="mm"
     inkscape:current-layer="layer5"
     showgrid="false"
     fit-margin-top="0"
     fit-margin-left="0"
     fit-margin-right="0"
     fit-margin-bottom="0"
     inkscape:window-width="1920"
     inkscape:window-height="1001"
     inkscape:window-x="-9"
     inkscape:window-y="-9"
     inkscape:window-maximized="1" />
  <metadata
     id="metadata1514">
    <rdf:RDF>
      <cc:Work
         rdf:about="">
        <dc:format>image/svg+xml</dc:format>
        <dc:type
           rdf:resource="http://purl.org/dc/dcmitype/StillImage" />
        <dc:title />
      </cc:Work>
    </rdf:RDF>
  </metadata>
  <g
     inkscape:groupmode="layer"
     id="layer8"
     inkscape:label="Simplier Corona"
     style="display:inline"
     transform="translate(9.72451,13.295197)">
    <path
       style="display:inline;opacity:1;fill:#ff9955;fill-opacity:1;stroke:none;stroke-width:0.52916664;stroke-linecap:round;stroke-linejoin:miter;stroke-miterlimit:4;stroke-dasharray:none;stroke-dashoffset:0;stroke-opacity:1"
       d="m 105.669,-13.068969 c -12.414944,-1.928423 2.41033,9.0940654 -14.845095,9.5117894 -8.018764,0.1941205 -19.000894,4.11719983 -22.826861,-2.5130229 -0.316225,-0.5480027 0.483786,-0.623281 0.76425,-1.737431 -1.077043,0.016362 -3.161635,1.6257814 -0.986552,3.8008674 3.506179,3.01895154 -3.659981,-0.2432349 -8.941784,4.44505156 C 51.807681,0.56360424 46.73623,8.2587064 40.065253,8.5989582 43.057945,6.3000188 38.377058,7.7965656 40.316822,5.635903 39.310077,5.10096 44.407639,-1.423762 38.763878,4.1549362 37.380356,18.224372 18.753974,21.892183 12.917041,34.54156 5.6266423,36.88144 -2.5426152,41.233957 -4.944401,49.0461 c 1.3189794,-2.623899 13.7095734,-8.281151 7.0827717,-2.80603 4.1501938,0.122235 11.1469083,-3.789532 -0.085097,8.087135 -5.8659403,14.662075 -8.1475212,30.849752 -5.9352074,46.521935 -9.8547993,-1.995852 -5.9136171,13.59841 2.0195149,10.98176 2.9748531,20.97753 20.4344668,37.13425 31.1738858,52.16546 -1.99409,5.87056 10.90149,19.47823 5.417577,7.5488 -2.575391,-15.67376 20.148851,13.1797 17.451387,3.96249 18.549916,10.20499 45.821885,7.27372 62.077199,5.63663 -0.41958,0.003 10.27195,-3.64381 4.72741,1.30666 -4.11947,2.24759 -15.19261,5.92536 -4.23746,5.37495 11.35414,0.28953 8.89694,-10.29705 18.18156,-15.56958 25.73913,-14.61668 39.63891,-39.52868 50.57852,-64.53317 2.87901,-0.19727 4.63109,-2.97986 4.95273,-4.79429 -2.52842,3.343 -6.04018,-2.89485 -5.61343,-6.980327 1.89737,-18.164342 -4.64535,-37.996267 -11.15977,-52.916008 3.85134,2.493897 0.95322,-1.576133 6.11844,2.374149 10.12686,5.248307 -5.39114,-6.018374 -8.39562,-8.397229 -16.72647,-17.100128 -34.64516,-35.2208757 -59.57589,-39.3586456 5.00973,-3.2334749 1.072,-10.9907144 -4.16512,-10.7197584 z M 41.612962,6.5970133 41.861009,6.3308795 Z M 104.78792,-11.472168 c 9.79613,-0.929025 2.36669,14.7306758 -1.76864,6.2171023 -0.78173,-2.5095009 -2.91654,-6.2264953 1.76864,-6.2171023 z M -6.501412,103.16631 c 6.38787423,0.73105 3.4766134,9.9778 -0.6800617,3.61219 -0.4187804,-0.86186 -1.1332538,-3.54009 0.6800617,-3.61219 z"
       id="circle2129"
       inkscape:connector-curvature="0"
       sodipodi:nodetypes="csaccccccccccccccccccsccscccccccccccccc" />
  </g>
  <g
     inkscape:label="Sun"
     inkscape:groupmode="layer"
     id="layer1"
     transform="translate(-37.900505,-10.805999)"
     style="display:inline">
    <circle
       style="opacity:1;fill:#ffdd55;fill-opacity:1;stroke:none;stroke-width:0.52916664;stroke-linecap:round;stroke-linejoin:miter;stroke-miterlimit:4;stroke-dasharray:none;stroke-dashoffset:0;stroke-opacity:1"
       id="path2062"
       cx="136.99295"
       cy="111.39425"
       r="82.5" />
  </g>
  <g
     inkscape:groupmode="layer"
     id="layer5"
     inkscape:label="Sunspots"
     style="opacity:0.325"
     transform="translate(-37.900505,-10.805999)">
    <g
       id="g832"
       transform="matrix(0.9740824,0,0,0.89846033,3.7911576,12.181477)"
       style="stroke-width:1.06893849">
      <ellipse
         ry="0.75595242"
         rx="0.66145831"
         cy="188.61533"
         cx="103.1875"
         id="path2081"
         style="opacity:1;fill:#554400;fill-opacity:1;stroke:none;stroke-width:0.56564659;stroke-linecap:round;stroke-linejoin:miter;stroke-miterlimit:4;stroke-dasharray:none;stroke-dashoffset:0;stroke-opacity:1" />
      <ellipse
         ry="0.28348213"
         rx="0.1889881"
         cy="186.44196"
         cx="104.13245"
         id="path2083"
         style="opacity:1;fill:#554400;fill-opacity:1;stroke:none;stroke-width:0.56564659;stroke-linecap:round;stroke-linejoin:miter;stroke-miterlimit:4;stroke-dasharray:none;stroke-dashoffset:0;stroke-opacity:1" />
      <circle
         r="0.4252232"
         cy="187.24516"
         cx="106.06956"
         id="path2085"
         style="opacity:1;fill:#554400;fill-opacity:1;stroke:none;stroke-width:0.56564659;stroke-linecap:round;stroke-linejoin:miter;stroke-miterlimit:4;stroke-dasharray:none;stroke-dashoffset:0;stroke-opacity:1" />
      <circle
         r="0.33072916"
         cy="190.36346"
         cx="105.5026"
         id="path2087"
         style="opacity:1;fill:#554400;fill-opacity:1;stroke:none;stroke-width:0.56564659;stroke-linecap:round;stroke-linejoin:miter;stroke-miterlimit:4;stroke-dasharray:none;stroke-dashoffset:0;stroke-opacity:1" />
      <circle
         r="0.93544334"
         cy="87.059784"
         cx="183.21327"
         id="path2089"
         style="opacity:1;fill:#554400;fill-opacity:1;stroke:none;stroke-width:0.56564659;stroke-linecap:round;stroke-linejoin:miter;stroke-miterlimit:4;stroke-dasharray:none;stroke-dashoffset:0;stroke-opacity:1" />
      <circle
         r="0.93544334"
         cy="83.050743"
         cx="189.09319"
         id="path2091"
         style="opacity:1;fill:#554400;fill-opacity:1;stroke:none;stroke-width:0.56564659;stroke-linecap:round;stroke-linejoin:miter;stroke-miterlimit:4;stroke-dasharray:none;stroke-dashoffset:0;stroke-opacity:1" />
      <circle
         r="1.0690781"
         cy="129.68927"
         cx="119.46947"
         id="path2095"
         style="opacity:1;fill:#554400;fill-opacity:1;stroke:none;stroke-width:0.56564659;stroke-linecap:round;stroke-linejoin:miter;stroke-miterlimit:4;stroke-dasharray:none;stroke-dashoffset:0;stroke-opacity:1" />
      <circle
         r="0.93544334"
         cy="50.17659"
         cx="108.91234"
         id="path2097"
         style="opacity:1;fill:#554400;fill-opacity:1;stroke:none;stroke-width:0.56564659;stroke-linecap:round;stroke-linejoin:miter;stroke-miterlimit:4;stroke-dasharray:none;stroke-dashoffset:0;stroke-opacity:1" />
    </g>
  </g>
</svg>
