<?xml version="1.0" encoding="UTF-8" standalone="no"?>
<!-- Created with Inkscape (http://www.inkscape.org/) -->

<svg
   xmlns:dc="http://purl.org/dc/elements/1.1/"
   xmlns:cc="http://creativecommons.org/ns#"
   xmlns:rdf="http://www.w3.org/1999/02/22-rdf-syntax-ns#"
   xmlns:svg="http://www.w3.org/2000/svg"
   xmlns="http://www.w3.org/2000/svg"
   xmlns:sodipodi="http://sodipodi.sourceforge.net/DTD/sodipodi-0.dtd"
   xmlns:inkscape="http://www.inkscape.org/namespaces/inkscape"
   width="129.26785mm"
   height="129.26785mm"
   viewBox="0 0 129.26785 129.26785"
   version="1.1"
   id="svg4747"
   inkscape:version="0.92.4 (5da689c313, 2019-01-14)"
   sodipodi:docname="venus.svg">
  <defs
     id="defs4741" />
  <sodipodi:namedview
     id="base"
     pagecolor="#ffffff"
     bordercolor="#666666"
     borderopacity="1.0"
     inkscape:pageopacity="0.0"
     inkscape:pageshadow="2"
     inkscape:zoom="0.7"
     inkscape:cx="-403.67526"
     inkscape:cy="47.252648"
     inkscape:document-units="mm"
     inkscape:current-layer="layer3"
     showgrid="false"
     fit-margin-top="0"
     fit-margin-left="0"
     fit-margin-right="0"
     fit-margin-bottom="0"
     inkscape:window-width="1920"
     inkscape:window-height="1001"
     inkscape:window-x="-9"
     inkscape:window-y="-9"
     inkscape:window-maximized="1" />
  <metadata
     id="metadata4744">
    <rdf:RDF>
      <cc:Work
         rdf:about="">
        <dc:format>image/svg+xml</dc:format>
        <dc:type
           rdf:resource="http://purl.org/dc/dcmitype/StillImage" />
        <dc:title></dc:title>
      </cc:Work>
    </rdf:RDF>
  </metadata>
  <g
     inkscape:label="Venus"
     inkscape:groupmode="layer"
     id="layer1"
     transform="translate(-70.303574,-46.023811)">
    <circle
       r="64.633926"
       cy="110.65774"
       cx="134.9375"
       id="circle5349"
       style="opacity:1;fill:#e0d9d3;fill-opacity:1;stroke:none;stroke-width:5;stroke-linecap:round;stroke-linejoin:miter;stroke-miterlimit:4;stroke-dasharray:none;stroke-dashoffset:0;stroke-opacity:0.49803922" />
    <path
       style="opacity:1;fill:#ffffff;fill-opacity:0.48627451;stroke:none;stroke-width:18.89763832;stroke-linecap:round;stroke-linejoin:miter;stroke-miterlimit:4;stroke-dasharray:none;stroke-dashoffset:0;stroke-opacity:0.49803922"
       d="m 450.625,291.50977 c -45.82995,-0.29212 -86.12598,24.11949 -128.55469,37.41601 -12.43242,3.89613 -28.23937,9.09858 -44.5039,14.53711 a 244.28571,244.28571 0 0 0 -4.16016,15.46484 c 19.87803,-6.71757 40.56426,-13.60638 55.75586,-18.36718 37.80367,-11.8471 73.7088,-33.5962 114.54297,-33.33594 60.46719,0.38541 124.15904,19.99187 168.52344,51.51758 18.28781,12.99547 36.84182,32.63165 32.91406,51.51758 -7.43327,35.74144 -58.29394,59.16105 -98.74414,77.7832 -51.32977,23.63078 -116.32288,22.46468 -172.47266,38.38476 -19.07147,5.40732 -47.53472,15.47589 -69.13281,23.35743 a 244.28571,244.28571 0 0 0 5.32812,8.38086 c 21.28228,-7.60903 45.18192,-15.81319 62.1875,-20.63477 63.01935,-17.86779 135.96458,-16.55823 193.57422,-43.08008 45.39901,-20.90045 102.48347,-47.18462 110.82617,-87.29883 4.40829,-21.19649 -16.41814,-43.23688 -36.94336,-57.82226 C 589.97353,313.9474 518.48997,291.94232 450.625,291.50977 Z M 273.10938,360.0293 a 244.28571,244.28571 0 0 0 -3.8418,18.92382 244.28571,244.28571 0 0 1 3.8418,-18.92382 z m -4.88282,25.25781 a 244.28571,244.28571 0 0 0 -1.57617,15.6543 244.28571,244.28571 0 0 1 1.57617,-15.6543 z m -2.39258,28.62695 a 244.28571,244.28571 0 0 0 -0.11914,4.32032 244.28571,244.28571 0 0 1 0.11914,-4.32032 z"
       transform="scale(0.26458333)"
       id="circle5316"
       inkscape:connector-curvature="0" />
    <path
       style="fill:#ffffff;fill-opacity:0.48627451;stroke:none;stroke-width:0.99999994px;stroke-linecap:butt;stroke-linejoin:miter;stroke-opacity:1"
       d="m 530.91797,529.7207 c -26.27767,-0.038 -52.56831,1.43539 -78.36914,5.90039 -27.07665,4.68579 -53.5784,13.3204 -78.79297,24.24414 -12.2072,5.28855 -30.62536,16.19654 -43.11133,23.87891 a 244.28571,244.28571 0 0 0 30.59766,27.87891 c 0.47429,-0.26009 0.95223,-0.52485 1.40234,-0.7461 34.12316,-16.77286 72.46261,-24.45215 110.10742,-29.79883 47.32611,-6.7217 109.0546,-10.22123 143.37891,-2.56054 23.49137,5.24293 43.23592,17.27713 53.36523,24.35547 a 244.28571,244.28571 0 0 0 35.85157,-38.45703 c -12.96751,-6.56041 -37.40728,-18.43261 -52.78907,-22.73438 -27.79321,-7.77282 -57.02938,-9.89269 -85.86328,-11.11133 -11.89135,-0.50257 -23.83295,-0.83234 -35.77734,-0.84961 z"
       transform="scale(0.26458333)"
       id="path5296"
       inkscape:connector-curvature="0" />
    <path
       style="fill:#d4b393;fill-opacity:0.48543689;stroke:none;stroke-width:0.99999994px;stroke-linecap:butt;stroke-linejoin:miter;stroke-opacity:1"
       d="m 443.70508,307.22461 c -40.83417,-0.26026 -76.7393,21.48884 -114.54297,33.33594 -15.21136,4.767 -35.93222,11.66671 -55.83399,18.39257 a 244.28571,244.28571 0 0 0 -6.66796,41.89063 c 8.1221,-5.26396 16.36165,-9.77138 23.33984,-11.89453 15.43958,-4.69758 36.2784,-8.91856 54.06836,-9.00781 13.83663,-0.0694 25.82946,2.35915 32.00391,9.00586 8.4218,9.06595 -11.87816,35.52201 -18.92969,52.85742 -6.90492,16.97499 -11.25779,35.81282 -22.85742,50 -8.19941,10.02844 -20.46201,15.96152 -31.42774,22.85742 -3.69842,2.32579 -8.42957,5.04091 -13.44726,7.80664 a 244.28571,244.28571 0 0 0 14.88281,27.49609 c 21.65324,-7.90631 50.42272,-18.09049 69.63281,-23.53711 56.14978,-15.92008 121.14289,-14.75398 172.47266,-38.38476 40.4502,-18.62215 91.31087,-42.04176 98.74414,-77.7832 3.92776,-18.88593 -14.62625,-38.52211 -32.91406,-51.51758 -44.3644,-31.52571 -108.05625,-51.13217 -168.52344,-51.51758 z m -177.19531,95.09766 a 244.28571,244.28571 0 0 0 -0.79493,15.91211 244.28571,244.28571 0 0 1 0.79493,-15.91211 z m -0.79493,15.91211 a 244.28571,244.28571 0 0 0 22.79883,102.3789 244.28571,244.28571 0 0 1 -22.79883,-102.3789 z"
       transform="scale(0.26458333)"
       id="path5301"
       inkscape:connector-curvature="0" />
    <path
       style="fill:#ffffff;fill-opacity:0.56796115;stroke:none;stroke-width:0.99999994px;stroke-linecap:butt;stroke-linejoin:miter;stroke-opacity:1"
       d="m 492.51367,210.49023 c -8.94089,0.0685 -17.87514,0.35147 -26.79883,0.88672 -33.75889,2.02492 -66.75771,4.92052 -100,11.14258 -0.63005,0.11793 -1.35774,0.25811 -2,0.37891 -25.78186,19.32654 -47.48561,43.56262 -63.86132,71.3125 35.61648,-8.16806 81.41223,-17.95189 111.57421,-21.69141 57.70224,-7.15398 116.42678,-12.87927 174.28711,-7.14258 38.52424,3.81958 102.35673,21.6936 136.0625,31.70899 -17.75944,-31.14579 -42.157,-58.00058 -71.46093,-78.65821 -13.85597,-2.38627 -27.81752,-4.24179 -41.74414,-5.9082 -38.46445,-4.60251 -77.31473,-2.32603 -116.0586,-2.0293 z"
       transform="scale(0.26458333)"
       id="path5306"
       inkscape:connector-curvature="0"
       sodipodi:nodetypes="cccccssccsc" />
    <path
       style="fill:#ffffff;fill-opacity:0.48235294;stroke:none;stroke-width:0.99999994px;stroke-linecap:butt;stroke-linejoin:miter;stroke-opacity:1"
       d="m 560.38867,614.76367 c -15.37048,0.12363 -30.87132,1.40366 -46.10351,2.04102 -24.90441,1.04205 -50.2909,1.82021 -74.28516,8.57226 -9.45229,2.6599 -21.97298,8.1041 -33.69531,13.72266 A 244.28571,244.28571 0 0 0 510,662.51953 244.28571,244.28571 0 0 0 631.29688,629.92578 c -9.1413,-4.48858 -18.00453,-8.20945 -25.58204,-10.26367 -14.71442,-3.98901 -29.95568,-5.02207 -45.32617,-4.89844 z"
       transform="scale(0.26458333)"
       id="path5322"
       inkscape:connector-curvature="0" />
    <path
       style="opacity:1;fill:#ffffff;fill-opacity:0.48627451;stroke:none;stroke-width:18.89763832;stroke-linecap:round;stroke-linejoin:miter;stroke-miterlimit:4;stroke-dasharray:none;stroke-dashoffset:0;stroke-opacity:0.49803922"
       d="m 620.73047,286.21875 c -4.29183,-0.0267 -8.36659,0.15679 -12.1582,0.58594 -5.71733,0.64711 -15.53124,1.39363 -15.71485,7.14453 -0.88717,27.78696 51.98676,21.76224 73.57031,39.28516 17.84512,14.4878 40.41397,30.20034 44.28711,52.85742 2.39947,14.03637 -6.83055,28.33649 -15,40 -13.66012,19.50259 -36.50609,30.59151 -54.28711,46.42773 -13.33629,11.87762 -43.41863,19.05588 -39.28515,36.42969 6.76732,28.44431 55.63932,18.42923 84.28515,24.28516 9.87358,2.01839 22.56451,3.93844 35.77344,5.67382 a 244.28571,244.28571 0 0 0 32.08399,-120.67382 244.28571,244.28571 0 0 0 -26.32618,-110.2461 c -27.84332,-8.77549 -74.00106,-21.56309 -107.22851,-21.76953 z"
       transform="scale(0.26458333)"
       id="circle5329"
       inkscape:connector-curvature="0" />
    <path
       style="fill:#ffffff;fill-opacity:0.48627451;stroke:none;stroke-width:0.99999994px;stroke-linecap:butt;stroke-linejoin:miter;stroke-opacity:1"
       d="m 510,173.94922 a 244.28571,244.28571 0 0 0 -79.66992,13.66016 c 6.28685,2.75049 12.32434,5.02993 17.52734,6.33984 31.1839,7.85085 64.42799,6.03147 96.42774,2.85547 12.35521,-1.22627 30.12575,-5.24971 45.51562,-9.16797 A 244.28571,244.28571 0 0 0 510,173.94922 Z"
       transform="scale(0.26458333)"
       id="path5332"
       inkscape:connector-curvature="0" />
    <path
       style="fill:#ffffff;fill-opacity:0.48627451;stroke:none;stroke-width:0.99999994px;stroke-linecap:butt;stroke-linejoin:miter;stroke-opacity:1"
       d="m 344.06836,379.94141 c -17.78996,0.0892 -38.62878,4.31023 -54.06836,9.00781 -7.00044,2.12992 -15.27074,6.65779 -23.41797,11.94336 a 244.28571,244.28571 0 0 0 -0.86719,17.3418 244.28571,244.28571 0 0 0 23.64649,104.26171 c 5.03658,-2.77541 9.78518,-5.50034 13.49609,-7.83398 10.96573,-6.8959 23.22833,-12.82898 31.42774,-22.85742 11.59963,-14.18718 15.9525,-33.02501 22.85742,-50 7.05153,-17.33541 27.35149,-43.79147 18.92969,-52.85742 -6.17445,-6.64671 -18.16728,-9.07528 -32.00391,-9.00586 z"
       transform="scale(0.26458333)"
       id="path5337"
       inkscape:connector-curvature="0" />
    <path
       style="opacity:1;fill:#ffffff;fill-opacity:0.48627451;stroke:none;stroke-width:18.89763832;stroke-linecap:round;stroke-linejoin:miter;stroke-miterlimit:4;stroke-dasharray:none;stroke-dashoffset:0;stroke-opacity:0.49803922"
       d="m 416.62891,339.08203 c -9.63256,0.0494 -19.24487,0.4943 -28.77149,1.29492 -33.58025,2.82213 -89.36423,20.06828 -117.2539,29.2461 a 244.28571,244.28571 0 0 0 -1.5879,10.46093 c 14.21239,-3.49967 29.29038,-6.83915 40.26954,-8.27929 25.03375,-3.28369 51.55675,-9.48142 75.71484,-2.14258 12.57944,3.82143 25.90927,11.28194 32.14258,22.85742 9.60128,17.82992 10.51805,42.27733 2.14258,60.71485 -11.55001,25.42582 -40.76886,38.9748 -65,52.85742 -15.41845,8.83361 -42.39419,18.25498 -61.21875,24.30273 a 244.28571,244.28571 0 0 0 8.1875,14.26953 c 33.41159,-15.51739 104.52391,-48.31455 145.88867,-65.71484 27.79544,-11.69231 57.86357,-18.32476 84.28515,-32.85742 17.60833,-9.68512 43.29064,-16.32519 48.57227,-35.71485 2.3828,-8.74768 -4.55089,-18.35128 -10.71484,-25 -17.15932,-18.50879 -42.91369,-27.93044 -67.14258,-35 -27.53252,-8.0335 -56.616,-11.44324 -85.51367,-11.29492 z"
       transform="scale(0.26458333)"
       id="path5292"
       inkscape:connector-curvature="0" />
  </g>
  <g
     inkscape:groupmode="layer"
     id="layer3"
     inkscape:label="Shadow"
     style="opacity:0.4">
    <path
       style="opacity:1;fill:#000000;fill-opacity:1;stroke:none;stroke-width:18.89763832;stroke-linecap:round;stroke-linejoin:miter;stroke-miterlimit:4;stroke-dasharray:none;stroke-dashoffset:0;stroke-opacity:0.49803922"
       d="M 244.28516 0 A 244.28571 244.28571 0 0 0 194.73242 5.3574219 A 244.28571 244.28571 0 0 1 388.57227 244.28516 A 244.28571 244.28571 0 0 1 193.84375 483.21289 A 244.28571 244.28571 0 0 0 244.28516 488.57227 A 244.28571 244.28571 0 0 0 488.57227 244.28516 A 244.28571 244.28571 0 0 0 244.28516 0 z "
       transform="scale(0.26458333)"
       id="circle5353" />
  </g>
</svg>
