<?xml version="1.0" encoding="UTF-8" standalone="no"?>
<svg
   xmlns:dc="http://purl.org/dc/elements/1.1/"
   xmlns:cc="http://creativecommons.org/ns#"
   xmlns:rdf="http://www.w3.org/1999/02/22-rdf-syntax-ns#"
   xmlns:svg="http://www.w3.org/2000/svg"
   xmlns="http://www.w3.org/2000/svg"
   xmlns:sodipodi="http://sodipodi.sourceforge.net/DTD/sodipodi-0.dtd"
   xmlns:inkscape="http://www.inkscape.org/namespaces/inkscape"
   height="24"
   viewBox="0 0 24 24"
   width="24"
   version="1.1"
   id="svg831"
   sodipodi:docname="path_group.svg"
   style="fill:#000000"
   inkscape:version="0.92.4 (5da689c313, 2019-01-14)">
  <metadata
     id="metadata837">
    <rdf:RDF>
      <cc:Work
         rdf:about="">
        <dc:format>image/svg+xml</dc:format>
        <dc:type
           rdf:resource="http://purl.org/dc/dcmitype/StillImage" />
        <dc:title></dc:title>
      </cc:Work>
    </rdf:RDF>
  </metadata>
  <defs
     id="defs835" />
  <sodipodi:namedview
     pagecolor="#ffffff"
     bordercolor="#666666"
     borderopacity="1"
     objecttolerance="10"
     gridtolerance="10"
     guidetolerance="10"
     inkscape:pageopacity="0"
     inkscape:pageshadow="2"
     inkscape:window-width="1920"
     inkscape:window-height="991"
     id="namedview833"
     showgrid="false"
     fit-margin-top="0"
     fit-margin-left="0"
     fit-margin-right="0"
     fit-margin-bottom="0"
     inkscape:zoom="24.130019"
     inkscape:cx="14.791886"
     inkscape:cy="11.143068"
     inkscape:window-x="-9"
     inkscape:window-y="-9"
     inkscape:window-maximized="1"
     inkscape:current-layer="svg831" />
  <path
     d="M 0,0 H 24 V 24 H 0 Z"
     id="path827"
     inkscape:connector-curvature="0"
     style="fill:none" />
  <path
     style="stroke-width:1"
     d="M 2.4003906 2.4003906 C 1.0803906 2.4003906 0.01171875 3.4807813 0.01171875 4.8007812 L 0 19.199219 C 0 20.519219 1.0803906 21.599609 2.4003906 21.599609 L 21.599609 21.599609 C 22.919609 21.599609 24 20.519219 24 19.199219 L 24 7.1992188 C 24 5.8792187 22.919609 4.8007813 21.599609 4.8007812 L 12 4.8007812 L 9.5996094 2.4003906 L 2.4003906 2.4003906 z M 15.474609 6.1796875 A 2.5263156 2.5263156 0 0 1 18 8.7070312 C 18 10.595453 15.474609 13.398438 15.474609 13.398438 C 15.474609 13.398438 12.947266 10.595453 12.947266 8.7070312 A 2.5263156 2.5263156 0 0 1 15.474609 6.1796875 z M 7.8945312 6.4511719 A 1.8947366 1.8947366 0 0 1 9.7890625 8.3457031 C 9.7890625 9.1730712 9.2643376 9.8738657 8.5253906 10.132812 L 8.5253906 10.873047 L 7.2636719 10.873047 L 7.2636719 10.132812 C 6.5247255 9.8738657 6 9.1730712 6 8.3457031 A 1.8947366 1.8947366 0 0 1 7.8945312 6.4511719 z M 7.8945312 7.7148438 A 0.63157891 0.63157891 0 0 0 7.2636719 8.3457031 A 0.63157891 0.63157891 0 0 0 7.8945312 8.9785156 A 0.63157891 0.63157891 0 0 0 8.5253906 8.3457031 A 0.63157891 0.63157891 0 0 0 7.8945312 7.7148438 z M 15.474609 7.8027344 C 14.975662 7.8027344 14.570313 8.2080844 14.570312 8.7070312 A 0.90315785 0.90315785 0 0 0 15.474609 9.609375 A 0.90315785 0.90315785 0 0 0 16.376953 8.7070312 C 16.376953 8.2080844 15.973556 7.8027344 15.474609 7.8027344 z M 7.2636719 11.503906 L 8.5253906 11.503906 L 8.5253906 12.767578 L 7.2636719 12.767578 L 7.2636719 11.503906 z M 7.2636719 13.398438 L 8.5253906 13.398438 L 8.5253906 14.138672 C 9.0622316 14.328145 9.4921666 14.756127 9.6816406 15.292969 L 10.421875 15.292969 L 10.421875 16.556641 L 9.6816406 16.556641 C 9.4226926 17.295587 8.7218993 17.820312 7.8945312 17.820312 A 1.8947366 1.8947366 0 0 1 6 15.925781 C 6 15.098413 6.5247255 14.397619 7.2636719 14.138672 L 7.2636719 13.398438 z M 15.474609 14.03125 A 1.8947366 1.8947366 0 0 1 17.369141 15.925781 A 1.8947366 1.8947366 0 0 1 15.474609 17.820312 C 14.647241 17.820312 13.944494 17.295587 13.685547 16.556641 L 12.947266 16.556641 L 12.947266 15.292969 L 13.685547 15.292969 C 13.944494 14.554022 14.647241 14.03125 15.474609 14.03125 z M 7.8945312 15.292969 A 0.63157891 0.63157891 0 0 0 7.2636719 15.925781 A 0.63157891 0.63157891 0 0 0 7.8945312 16.556641 A 0.63157891 0.63157891 0 0 0 8.5253906 15.925781 A 0.63157891 0.63157891 0 0 0 7.8945312 15.292969 z M 11.052734 15.292969 L 12.316406 15.292969 L 12.316406 16.556641 L 11.052734 16.556641 L 11.052734 15.292969 z M 15.474609 15.292969 A 0.63157891 0.63157891 0 0 0 14.841797 15.925781 A 0.63157891 0.63157891 0 0 0 15.474609 16.556641 A 0.63157891 0.63157891 0 0 0 16.105469 15.925781 A 0.63157891 0.63157891 0 0 0 15.474609 15.292969 z "
     id="path829" />
</svg>
