<?xml version="1.0" encoding="UTF-8" standalone="no"?>
<svg
   viewBox="0 0 24 24"
   version="1.1"
   id="svg1"
   sodipodi:docname="field_guide.svg"
   inkscape:version="1.4 (e7c3feb100, 2024-10-09)"
   xmlns:inkscape="http://www.inkscape.org/namespaces/inkscape"
   xmlns:sodipodi="http://sodipodi.sourceforge.net/DTD/sodipodi-0.dtd"
   xmlns="http://www.w3.org/2000/svg"
   xmlns:svg="http://www.w3.org/2000/svg">
  <defs
     id="defs1" />
  <sodipodi:namedview
     id="namedview1"
     pagecolor="#ffffff"
     bordercolor="#000000"
     borderopacity="0.25"
     inkscape:showpageshadow="2"
     inkscape:pageopacity="0.0"
     inkscape:pagecheckerboard="0"
     inkscape:deskcolor="#d1d1d1"
     inkscape:zoom="35.291667"
     inkscape:cx="12.014168"
     inkscape:cy="12"
     inkscape:window-width="2048"
     inkscape:window-height="1067"
     inkscape:window-x="0"
     inkscape:window-y="0"
     inkscape:window-maximized="1"
     inkscape:current-layer="svg1"
     showguides="true">
    <sodipodi:guide
       position="9.4570174,2.9641381"
       orientation="0,-1"
       id="guide1"
       inkscape:locked="false" />
    <sodipodi:guide
       position="10.763983,13.005571"
       orientation="0,-1"
       id="guide2"
       inkscape:locked="false" />
  </sodipodi:namedview>
  <path
     id="path1"
     d="M 6 2 A 2 2 0 0 0 4 4 L 4 20 A 2 2 0 0 0 6 22 L 18 22 A 2 2 0 0 0 20 20 L 20 4 C 20 2.89 19.1 2 18 2 L 12 2 L 12 9 L 9.5 7.5 L 7 9 L 7 2 L 6 2 z M 10.113281 11.068359 C 10.72448 11.072854 11.341662 11.753787 11.527344 12.671875 C 11.725403 13.645669 11.367947 14.516206 10.71875 14.615234 C 10.075057 14.714265 9.3812964 14.002731 9.1777344 13.023438 C 8.9741723 12.049645 9.3429917 11.180703 9.9921875 11.076172 C 10.032762 11.070326 10.072535 11.06806 10.113281 11.068359 z M 13.804688 11.068359 C 13.845132 11.06806 13.88555 11.070326 13.925781 11.076172 C 14.580478 11.180707 14.942556 12.049645 14.75 13.023438 C 14.540937 14.002731 13.854274 14.714265 13.205078 14.615234 C 12.550381 14.516204 12.192924 13.645669 12.396484 12.671875 C 12.582165 11.753787 13.19802 11.072854 13.804688 11.068359 z M 7.421875 13.533203 C 7.9821214 13.534181 8.612532 13.986822 8.9746094 14.679688 C 9.3927357 15.548949 9.2486399 16.462841 8.6269531 16.732422 C 8.0052647 17.002004 7.1592392 16.518057 6.7246094 15.654297 C 6.2899779 14.790537 6.4436464 13.871501 7.0488281 13.607422 C 7.1664262 13.556875 7.2925874 13.532977 7.421875 13.533203 z M 16.578125 13.533203 C 16.707413 13.532977 16.833574 13.556875 16.951172 13.607422 C 17.556354 13.871501 17.71002 14.790537 17.275391 15.654297 C 16.840759 16.518057 15.994734 17.002004 15.373047 16.732422 C 14.75136 16.462841 14.607266 15.548949 15.025391 14.679688 C 15.387468 13.986822 16.017879 13.534181 16.578125 13.533203 z M 11.939453 15.169922 C 13.039785 15.169922 13.622511 16.606557 14.365234 17.404297 C 14.975917 18.075499 15.994692 18.642292 16.033203 19.539062 C 16.055204 20.056218 15.65869 20.627233 15.185547 20.841797 C 14.20075 21.292933 13.034284 20.357422 11.939453 20.357422 C 10.844624 20.357422 9.6675104 21.331445 8.6992188 20.841797 C 8.1490534 20.572216 7.7683223 19.857851 7.8398438 19.263672 C 7.9388742 18.443926 8.9246354 18.003979 9.5078125 17.404297 C 10.283546 16.628563 10.83362 15.169922 11.939453 15.169922 z " />
</svg>
