<?xml version="1.0" encoding="UTF-8" standalone="no"?>
<svg
   viewBox="0 0 24 24"
   version="1.1"
   id="svg1"
   sodipodi:docname="survival_guide.svg"
   inkscape:version="1.4 (e7c3feb100, 2024-10-09)"
   xmlns:inkscape="http://www.inkscape.org/namespaces/inkscape"
   xmlns:sodipodi="http://sodipodi.sourceforge.net/DTD/sodipodi-0.dtd"
   xmlns="http://www.w3.org/2000/svg"
   xmlns:svg="http://www.w3.org/2000/svg">
  <defs
     id="defs1" />
  <sodipodi:namedview
     id="namedview1"
     pagecolor="#ffffff"
     bordercolor="#000000"
     borderopacity="0.25"
     inkscape:showpageshadow="2"
     inkscape:pageopacity="0.0"
     inkscape:pagecheckerboard="0"
     inkscape:deskcolor="#d1d1d1"
     inkscape:zoom="35.291667"
     inkscape:cx="12.014168"
     inkscape:cy="12"
     inkscape:window-width="2048"
     inkscape:window-height="1067"
     inkscape:window-x="0"
     inkscape:window-y="0"
     inkscape:window-maximized="1"
     inkscape:current-layer="svg1"
     showguides="true">
    <sodipodi:guide
       position="9.4570174,2.9641381"
       orientation="0,-1"
       id="guide1"
       inkscape:locked="false" />
    <sodipodi:guide
       position="10.763983,13.005571"
       orientation="0,-1"
       id="guide2"
       inkscape:locked="false" />
  </sodipodi:namedview>
  <path
     id="path1"
     d="M 6 2 A 2 2 0 0 0 4 4 L 4 20 A 2 2 0 0 0 6 22 L 18 22 A 2 2 0 0 0 20 20 L 20 4 C 20 2.89 19.1 2 18 2 L 12 2 L 12 9 L 9.5 7.5 L 7 9 L 7 2 L 6 2 z M 13.083984 11.046875 C 12.5587 12.069798 12.740585 13.401706 13.564453 14.208984 C 13.918329 14.557331 14.338519 14.795195 14.708984 15.126953 C 14.852746 15.270717 15.007592 15.4142 15.134766 15.580078 C 15.134766 15.580078 15.44445 16.022998 15.560547 16.277344 L 15.632812 16.421875 C 16.152567 17.682557 15.798972 19.152445 14.787109 20.070312 C 13.880301 20.888662 12.614915 21.10437 11.431641 20.955078 C 10.320249 20.816846 9.2866194 20.132351 8.6894531 19.175781 C 8.5235742 18.882728 8.37428 18.55051 8.296875 18.21875 C 8.2028755 17.942286 8.1679396 17.665137 8.1347656 17.388672 C 8.0628849 16.188812 8.5668387 14.918002 9.4902344 14.166016 C 9.0700063 15.072823 9.1701104 16.205402 9.7949219 16.996094 C 9.8170489 17.034814 9.8379197 17.062204 9.8710938 17.089844 C 9.9761506 17.178294 10.109154 17.21154 10.236328 17.15625 C 10.346915 17.112015 10.429688 17.002505 10.429688 16.880859 C 10.429687 16.808979 10.408839 16.752556 10.386719 16.697266 C 9.7121424 14.955531 10.274939 12.927441 11.707031 11.777344 C 12.099612 11.462174 12.5587 11.17405 13.083984 11.046875 z M 12.283203 15.4375 C 12.133903 15.819022 12.123103 16.167002 12.189453 16.576172 C 12.261334 17.001928 12.43776 17.36625 12.34375 17.808594 C 12.227634 18.300704 11.833768 18.788538 11.175781 18.943359 C 11.540715 19.308292 12.160014 19.617656 12.779297 19.396484 C 12.978352 19.341191 13.233851 19.197157 13.388672 19.064453 C 13.720431 18.760342 13.918934 18.261999 13.902344 17.808594 C 13.902344 17.725655 13.891251 17.649676 13.869141 17.572266 C 13.725379 16.820278 13.056616 16.576369 12.630859 16.023438 C 12.498155 15.857557 12.388256 15.647614 12.283203 15.4375 z " />
</svg>
