<?xml version="1.0" encoding="UTF-8" standalone="no"?>
<svg
   viewBox="0 0 24 24"
   version="1.1"
   id="svg1"
   sodipodi:docname="user_guide.svg"
   inkscape:version="1.4 (e7c3feb100, 2024-10-09)"
   xmlns:inkscape="http://www.inkscape.org/namespaces/inkscape"
   xmlns:sodipodi="http://sodipodi.sourceforge.net/DTD/sodipodi-0.dtd"
   xmlns="http://www.w3.org/2000/svg"
   xmlns:svg="http://www.w3.org/2000/svg">
  <defs
     id="defs1" />
  <sodipodi:namedview
     id="namedview1"
     pagecolor="#ffffff"
     bordercolor="#000000"
     borderopacity="0.25"
     inkscape:showpageshadow="2"
     inkscape:pageopacity="0.0"
     inkscape:pagecheckerboard="0"
     inkscape:deskcolor="#d1d1d1"
     inkscape:zoom="35.291667"
     inkscape:cx="12.014168"
     inkscape:cy="12"
     inkscape:window-width="2048"
     inkscape:window-height="1067"
     inkscape:window-x="0"
     inkscape:window-y="0"
     inkscape:window-maximized="1"
     inkscape:current-layer="svg1"
     showguides="true">
    <sodipodi:guide
       position="9.4570174,2.9641381"
       orientation="0,-1"
       id="guide1"
       inkscape:locked="false" />
    <sodipodi:guide
       position="10.763983,13.005571"
       orientation="0,-1"
       id="guide2"
       inkscape:locked="false" />
  </sodipodi:namedview>
  <path
     id="path1"
     d="M 6 2 A 2 2 0 0 0 4 4 L 4 20 A 2 2 0 0 0 6 22 L 18 22 A 2 2 0 0 0 20 20 L 20 4 C 20 2.89 19.1 2 18 2 L 12 2 L 12 9 L 9.5 7.5 L 7 9 L 7 2 L 6 2 z M 12 11.042969 A 2.4068584 2.4911452 0 0 1 14.40625 13.535156 A 2.4068584 2.4911452 0 0 1 12 16.025391 A 2.4068584 2.4911452 0 0 1 9.59375 13.535156 A 2.4068584 2.4911452 0 0 1 12 11.042969 z M 12 17.271484 C 14.659579 17.271484 16.814453 18.38536 16.814453 19.761719 L 16.814453 21.007812 L 7.1855469 21.007812 L 7.1855469 19.761719 C 7.1855469 18.38536 9.3404218 17.271484 12 17.271484 z " />
</svg>
