<?xml version="1.0" encoding="UTF-8" standalone="no"?>
<!-- Created with Inkscape (http://www.inkscape.org/) -->

<svg
   xmlns:dc="http://purl.org/dc/elements/1.1/"
   xmlns:cc="http://creativecommons.org/ns#"
   xmlns:rdf="http://www.w3.org/1999/02/22-rdf-syntax-ns#"
   xmlns:svg="http://www.w3.org/2000/svg"
   xmlns="http://www.w3.org/2000/svg"
   xmlns:sodipodi="http://sodipodi.sourceforge.net/DTD/sodipodi-0.dtd"
   xmlns:inkscape="http://www.inkscape.org/namespaces/inkscape"
   width="24mm"
   height="24mm"
   viewBox="0 0 24 23.999999"
   version="1.1"
   id="svg8"
   inkscape:version="0.92.4 (5da689c313, 2019-01-14)"
   sodipodi:docname="barometer.svg">
  <defs
     id="defs2" />
  <sodipodi:namedview
     id="base"
     pagecolor="#ffffff"
     bordercolor="#666666"
     borderopacity="1.0"
     inkscape:pageopacity="0.0"
     inkscape:pageshadow="2"
     inkscape:zoom="3.959798"
     inkscape:cx="72.275781"
     inkscape:cy="42.5863"
     inkscape:document-units="mm"
     inkscape:current-layer="layer1"
     showgrid="false"
     fit-margin-top="0"
     fit-margin-left="0"
     fit-margin-right="0"
     fit-margin-bottom="0"
     inkscape:window-width="1920"
     inkscape:window-height="991"
     inkscape:window-x="-9"
     inkscape:window-y="-9"
     inkscape:window-maximized="1" />
  <metadata
     id="metadata5">
    <rdf:RDF>
      <cc:Work
         rdf:about="">
        <dc:format>image/svg+xml</dc:format>
        <dc:type
           rdf:resource="http://purl.org/dc/dcmitype/StillImage" />
        <dc:title></dc:title>
      </cc:Work>
    </rdf:RDF>
  </metadata>
  <g
     inkscape:label="Layer 1"
     inkscape:groupmode="layer"
     id="layer1"
     transform="translate(-15.312797,-160.45118)">
    <path
       style="color:#000000;font-style:normal;font-variant:normal;font-weight:normal;font-stretch:normal;font-size:medium;line-height:normal;font-family:sans-serif;font-variant-ligatures:normal;font-variant-position:normal;font-variant-caps:normal;font-variant-numeric:normal;font-variant-alternates:normal;font-feature-settings:normal;text-indent:0;text-align:start;text-decoration:none;text-decoration-line:none;text-decoration-style:solid;text-decoration-color:#000000;letter-spacing:normal;word-spacing:normal;text-transform:none;writing-mode:lr-tb;direction:ltr;text-orientation:mixed;dominant-baseline:auto;baseline-shift:baseline;text-anchor:start;white-space:normal;shape-padding:0;clip-rule:nonzero;display:inline;overflow:visible;visibility:visible;opacity:1;isolation:auto;mix-blend-mode:normal;color-interpolation:sRGB;color-interpolation-filters:linearRGB;solid-color:#000000;solid-opacity:1;vector-effect:none;fill:#000000;fill-opacity:1;fill-rule:nonzero;stroke:none;stroke-width:10;stroke-linecap:round;stroke-linejoin:round;stroke-miterlimit:4;stroke-dasharray:none;stroke-dashoffset:0;stroke-opacity:1;paint-order:fill markers stroke;color-rendering:auto;image-rendering:auto;shape-rendering:auto;text-rendering:auto;enable-background:accumulate"
       d="m 27.312797,161.77872 c -5.042655,0 -9.551605,3.15726 -11.276295,7.89581 -1.72469,4.73855 -0.300082,10.05545 3.562816,13.2968 a 0.62243075,0.62243075 0 1 0 0.800084,-0.95348 c -3.465316,-2.90775 -4.740464,-7.66679 -3.193285,-11.91763 1.547179,-4.25084 5.583032,-7.07677 10.10668,-7.07677 4.523649,0 8.559502,2.82593 10.10668,7.07677 1.547179,4.25084 0.272031,9.00988 -3.193284,11.91763 a 0.62243075,0.62243075 0 1 0 0.800083,0.95348 c 3.862898,-3.24135 5.287505,-8.55825 3.562817,-13.2968 -1.72469,-4.73855 -6.23364,-7.89581 -11.276296,-7.89581 z"
       id="path851"
       inkscape:connector-curvature="0" />
    <g
       id="g1446"
       transform="matrix(0.62099086,0,0,0.62099086,7.4789774,60.662661)"
       style="stroke-width:1.61032963">
      <circle
         r="7.0398068"
         cy="178.0807"
         cx="36.475445"
         id="path854"
         style="opacity:1;fill:#ffdd55;fill-opacity:1;stroke:none;stroke-width:8.05164814;stroke-linecap:round;stroke-linejoin:miter;stroke-miterlimit:4;stroke-dasharray:none;stroke-dashoffset:0;stroke-opacity:0.49803922" />
      <path
         sodipodi:nodetypes="ccccccccccccc"
         inkscape:connector-curvature="0"
         id="path815"
         d="m 29.301934,175.67552 c -2.42277,0.003 -4.407419,1.92519 -4.487066,4.34665 -0.126837,-0.0118 -0.254116,-0.0181 -0.381494,-0.0191 -2.482177,1e-5 -4.494376,2.01221 -4.494386,4.49439 1e-5,2.48218 2.012209,4.49437 4.494386,4.49438 H 39.44447 c 2.482228,7e-5 4.494508,-2.01215 4.494518,-4.49438 -1e-5,-2.48223 -2.01229,-4.49445 -4.494518,-4.49439 -0.01394,5.1e-4 -0.02789,0.001 -0.04183,0.002 -0.08894,-2.41508 -2.071784,-4.32747 -4.488503,-4.329 -1.021212,2.5e-4 -2.01185,0.3485 -2.80878,0.98707 -0.795494,-0.63742 -1.784047,-0.98549 -2.803418,-0.98707 z"
         style="opacity:1;fill:#cccccc;fill-opacity:1;stroke:none;stroke-width:8.05164814;stroke-linecap:round;stroke-linejoin:miter;stroke-miterlimit:4;stroke-dasharray:none;stroke-dashoffset:0;stroke-opacity:0.49803922" />
      <path
         sodipodi:nodetypes="cccccccccc"
         inkscape:connector-curvature="0"
         id="path835"
         d="m 31.642606,178.35972 c -1.740787,0.002 -3.225117,1.26194 -3.509929,2.97926 -1.756128,0.24779 -3.196331,1.74975 -3.198249,3.52327 -2e-5,1.9673 1.594796,3.56211 3.562093,3.56209 h 6.884934 c 1.967297,2e-5 3.562112,-1.59479 3.562092,-3.56209 2e-5,-1.9673 -1.460918,-3.56212 -3.428215,-3.56209 -0.120883,0.001 -0.241625,0.009 -0.361754,0.0222 -0.292099,-1.71112 -1.775101,-2.96251 -3.510972,-2.96266 z"
         style="opacity:1;fill:#b3b3b3;fill-opacity:1;stroke:none;stroke-width:8.05164814;stroke-linecap:round;stroke-linejoin:miter;stroke-miterlimit:4;stroke-dasharray:none;stroke-dashoffset:0;stroke-opacity:0.49803922" />
    </g>
  </g>
</svg>
