<?xml version="1.0" encoding="UTF-8" standalone="no"?>
<!-- Created with Inkscape (http://www.inkscape.org/) -->

<svg
   xmlns:dc="http://purl.org/dc/elements/1.1/"
   xmlns:cc="http://creativecommons.org/ns#"
   xmlns:rdf="http://www.w3.org/1999/02/22-rdf-syntax-ns#"
   xmlns:svg="http://www.w3.org/2000/svg"
   xmlns="http://www.w3.org/2000/svg"
   xmlns:sodipodi="http://sodipodi.sourceforge.net/DTD/sodipodi-0.dtd"
   xmlns:inkscape="http://www.inkscape.org/namespaces/inkscape"
   width="24mm"
   height="24mm"
   viewBox="0 0 24 24"
   version="1.1"
   id="svg8"
   inkscape:version="0.92.4 (5da689c313, 2019-01-14)"
   sodipodi:docname="half_tide.svg">
  <defs
     id="defs2" />
  <sodipodi:namedview
     id="base"
     pagecolor="#ffffff"
     bordercolor="#666666"
     borderopacity="1.0"
     inkscape:pageopacity="0.0"
     inkscape:pageshadow="2"
     inkscape:zoom="2.8"
     inkscape:cx="36.700305"
     inkscape:cy="66.153697"
     inkscape:document-units="mm"
     inkscape:current-layer="layer1"
     showgrid="false"
     showguides="true"
     inkscape:guide-bbox="true"
     inkscape:window-width="1920"
     inkscape:window-height="991"
     inkscape:window-x="-9"
     inkscape:window-y="-9"
     inkscape:window-maximized="1" />
  <metadata
     id="metadata5">
    <rdf:RDF>
      <cc:Work
         rdf:about="">
        <dc:format>image/svg+xml</dc:format>
        <dc:type
           rdf:resource="http://purl.org/dc/dcmitype/StillImage" />
        <dc:title></dc:title>
      </cc:Work>
    </rdf:RDF>
  </metadata>
  <g
     inkscape:label="Layer 1"
     inkscape:groupmode="layer"
     id="layer1"
     transform="translate(0,-273)"
     style="opacity:1">
    <g
       id="g852"
       transform="matrix(0.57377919,0,0,0.57377919,9.0325418,126.89422)"
       style="stroke-width:1.74283075">
      <g
         style="fill:none;stroke:#000000;stroke-width:98.43994141;stroke-linejoin:round;stroke-miterlimit:4;stroke-dasharray:none;stroke-opacity:1"
         transform="matrix(0.01244883,0,0,-0.02517904,2.2684023,289.99157)"
         id="g857" />
      <path
         id="path877"
         transform="matrix(0.26458333,0,0,0.26458333,0,273)"
         d="m -58.208984,-2.6894531 c -0.07629,-7.34e-5 -0.149177,0.00918 -0.22461,0.011719 A 79.044432,79.044432 0 0 0 -59.498047,9.6445312 79.044432,79.044432 0 0 0 19.546875,88.6875 79.044432,79.044432 0 0 0 98.591797,9.6445312 79.044432,79.044432 0 0 0 97.605469,-2.4355469 C 97.041287,-2.5941954 96.45628,-2.6891559 95.839844,-2.6894531 87.984719,-2.6970122 84.704726,11.265498 76.849609,11.261719 69.010722,11.25416 65.758806,-2.6781145 57.919922,-2.6894531 c -0.237317,-2.646e-4 -0.484571,0.039452 -0.734375,0.097656 -0.202658,-0.051402 -0.403826,-0.083419 -0.599609,-0.089844 C 48.623183,-2.9446957 45.14078,11.310853 37.173828,11.261719 29.334673,11.213719 26.081484,-2.6856736 18.242188,-2.6894531 10.387066,-2.6970122 7.1070694,11.265498 -0.74804688,11.261719 -8.5869347,11.25416 -11.838852,-2.6781145 -19.677734,-2.6894531 c -0.0457,-3.78e-5 -0.09439,0.011845 -0.140625,0.015625 -0.01534,-7.937e-4 -0.03157,-0.00403 -0.04687,-0.00781 -7.962754,-0.2630551 -11.445158,13.9924931 -19.41211,13.9433601 -7.839152,-0.048 -11.092345,-13.9473931 -18.93164,-13.9511726 z"
         style="fill:#0000ff;fill-opacity:1;stroke:none;stroke-width:1.74283063px;stroke-linecap:butt;stroke-linejoin:miter;stroke-opacity:1"
         inkscape:connector-curvature="0" />
      <g
         inkscape:label="Layer 1"
         id="layer1-4"
         transform="translate(-30.575232,-23.758038)"
         style="stroke-width:1.74283075" />
      <circle
         r="20.913839"
         cy="275.55161"
         cx="5.1717997"
         id="path829"
         style="opacity:0.4;fill:#0000ff;fill-opacity:1;stroke:none;stroke-width:1.74283075;stroke-linecap:round;stroke-linejoin:round;stroke-miterlimit:4;stroke-dasharray:none;stroke-dashoffset:0;stroke-opacity:1;paint-order:fill markers stroke" />
    </g>
  </g>
</svg>
