<?xml version="1.0" encoding="UTF-8" standalone="no"?>
<!-- Created with Inkscape (http://www.inkscape.org/) -->

<svg
   xmlns:dc="http://purl.org/dc/elements/1.1/"
   xmlns:cc="http://creativecommons.org/ns#"
   xmlns:rdf="http://www.w3.org/1999/02/22-rdf-syntax-ns#"
   xmlns:svg="http://www.w3.org/2000/svg"
   xmlns="http://www.w3.org/2000/svg"
   xmlns:sodipodi="http://sodipodi.sourceforge.net/DTD/sodipodi-0.dtd"
   xmlns:inkscape="http://www.inkscape.org/namespaces/inkscape"
   width="24mm"
   height="24mm"
   viewBox="0 0 24 24"
   version="1.1"
   id="svg8"
   inkscape:version="0.92.4 (5da689c313, 2019-01-14)"
   sodipodi:docname="high_tide.svg">
  <defs
     id="defs2" />
  <sodipodi:namedview
     id="base"
     pagecolor="#ffffff"
     bordercolor="#666666"
     borderopacity="1.0"
     inkscape:pageopacity="0.0"
     inkscape:pageshadow="2"
     inkscape:zoom="2.8"
     inkscape:cx="36.700305"
     inkscape:cy="109.01084"
     inkscape:document-units="mm"
     inkscape:current-layer="layer1"
     showgrid="false"
     showguides="true"
     inkscape:guide-bbox="true"
     inkscape:window-width="1920"
     inkscape:window-height="991"
     inkscape:window-x="-9"
     inkscape:window-y="-9"
     inkscape:window-maximized="1" />
  <metadata
     id="metadata5">
    <rdf:RDF>
      <cc:Work
         rdf:about="">
        <dc:format>image/svg+xml</dc:format>
        <dc:type
           rdf:resource="http://purl.org/dc/dcmitype/StillImage" />
        <dc:title></dc:title>
      </cc:Work>
    </rdf:RDF>
  </metadata>
  <g
     inkscape:label="Layer 1"
     inkscape:groupmode="layer"
     id="layer1"
     transform="translate(0,-273)"
     style="opacity:1">
    <g
       id="g838"
       transform="matrix(0.57377919,0,0,0.57377919,9.0325418,126.89422)"
       style="stroke-width:1.74283075">
      <g
         style="fill:none;stroke:#000000;stroke-width:98.43994141;stroke-linejoin:round;stroke-miterlimit:4;stroke-dasharray:none;stroke-opacity:1"
         transform="matrix(0.01244883,0,0,-0.02517904,2.2684023,289.99157)"
         id="g857" />
      <path
         id="path877"
         transform="matrix(0.26458333,0,0,0.26458333,0,273)"
         d="m -17.677734,-52.689453 c -0.0457,-3.8e-5 -0.09439,0.0099 -0.140625,0.01367 -0.01534,-7.94e-4 -0.03157,-0.0021 -0.04687,-0.0059 -7.962754,-0.263055 -11.445157,13.992494 -19.41211,13.94336 -1.623743,-0.0099 -3.043726,-0.635972 -4.355468,-1.587891 A 79.044432,79.044432 0 0 0 -59.498047,9.6445312 79.044432,79.044432 0 0 0 19.546875,88.6875 79.044432,79.044432 0 0 0 98.591797,9.6445312 79.044432,79.044432 0 0 0 81.580078,-39.330078 c -0.851173,0.376121 -1.755929,0.592266 -2.730469,0.591797 -7.838887,-0.0076 -11.090803,-13.939834 -18.929687,-13.951172 -0.237317,-2.65e-4 -0.484571,0.03945 -0.734375,0.09766 -0.202658,-0.0514 -0.403826,-0.08342 -0.599609,-0.08984 -7.962755,-0.263055 -11.445157,13.992494 -19.41211,13.94336 -7.839155,-0.048 -11.092344,-13.947393 -18.93164,-13.951172 -7.855122,-0.0076 -11.1351185,13.954951 -18.9902349,13.951172 -7.8388876,-0.0076 -11.0908048,-13.939834 -18.9296871,-13.951172 z"
         style="fill:#0000ff;fill-opacity:1;stroke:none;stroke-width:1.74283063px;stroke-linecap:butt;stroke-linejoin:miter;stroke-opacity:1"
         inkscape:connector-curvature="0" />
      <g
         inkscape:label="Layer 1"
         id="layer1-4"
         transform="translate(-30.575232,-23.758038)"
         style="stroke-width:1.74283075" />
      <circle
         r="20.913839"
         cy="275.55161"
         cx="5.1717997"
         id="path829"
         style="opacity:0.4;fill:#0000ff;fill-opacity:1;stroke:none;stroke-width:1.74283075;stroke-linecap:round;stroke-linejoin:round;stroke-miterlimit:4;stroke-dasharray:none;stroke-dashoffset:0;stroke-opacity:1;paint-order:fill markers stroke" />
    </g>
  </g>
</svg>
