<?xml version="1.0" encoding="UTF-8" standalone="no"?>
<!-- Created with Inkscape (http://www.inkscape.org/) -->

<svg
   xmlns:dc="http://purl.org/dc/elements/1.1/"
   xmlns:cc="http://creativecommons.org/ns#"
   xmlns:rdf="http://www.w3.org/1999/02/22-rdf-syntax-ns#"
   xmlns:svg="http://www.w3.org/2000/svg"
   xmlns="http://www.w3.org/2000/svg"
   xmlns:sodipodi="http://sodipodi.sourceforge.net/DTD/sodipodi-0.dtd"
   xmlns:inkscape="http://www.inkscape.org/namespaces/inkscape"
   width="24mm"
   height="24mm"
   viewBox="0 0 24 23.999999"
   version="1.1"
   id="svg8"
   inkscape:version="0.92.4 (5da689c313, 2019-01-14)"
   sodipodi:docname="storm.svg">
  <defs
     id="defs2" />
  <sodipodi:namedview
     id="base"
     pagecolor="#ffffff"
     bordercolor="#666666"
     borderopacity="1.0"
     inkscape:pageopacity="0.0"
     inkscape:pageshadow="2"
     inkscape:zoom="3.6203867"
     inkscape:cx="25.952182"
     inkscape:cy="39.288138"
     inkscape:document-units="mm"
     inkscape:current-layer="layer1"
     showgrid="false"
     inkscape:window-width="1920"
     inkscape:window-height="991"
     inkscape:window-x="-9"
     inkscape:window-y="-9"
     inkscape:window-maximized="1"
     fit-margin-top="0"
     fit-margin-left="0"
     fit-margin-right="0"
     fit-margin-bottom="0" />
  <metadata
     id="metadata5">
    <rdf:RDF>
      <cc:Work
         rdf:about="">
        <dc:format>image/svg+xml</dc:format>
        <dc:type
           rdf:resource="http://purl.org/dc/dcmitype/StillImage" />
        <dc:title />
      </cc:Work>
    </rdf:RDF>
  </metadata>
  <g
     inkscape:label="Layer 1"
     inkscape:groupmode="layer"
     id="layer1"
     transform="translate(-57.568012,-150.81751)">
    <g
       id="g1436"
       transform="translate(0,-0.50000155)">
      <g
         transform="translate(0,-4.5291669)"
         id="g4559">
        <path
           style="opacity:1;fill:#cccccc;fill-opacity:1;stroke:none;stroke-width:5;stroke-linecap:round;stroke-linejoin:miter;stroke-miterlimit:4;stroke-dasharray:none;stroke-dashoffset:0;stroke-opacity:0.49803922"
           d="m 66.930958,156.15935 c -2.42277,0.003 -4.407419,1.92519 -4.487066,4.34665 -0.126837,-0.0118 -0.254116,-0.0181 -0.381494,-0.0191 -2.482177,1e-5 -4.494376,2.01221 -4.494386,4.49439 10e-6,2.48218 2.012209,4.49437 4.494386,4.49438 h 15.011096 c 2.482228,7e-5 4.494508,-2.01215 4.494518,-4.49438 -10e-6,-2.48223 -2.01229,-4.49445 -4.494518,-4.49439 -0.01394,5.1e-4 -0.02789,0.001 -0.04183,0.002 -0.08894,-2.41508 -2.071784,-4.32747 -4.488503,-4.329 -1.021212,2.5e-4 -2.01185,0.3485 -2.80878,0.98707 -0.795494,-0.63742 -1.784047,-0.98549 -2.803418,-0.98707 z"
           id="path815"
           inkscape:connector-curvature="0"
           sodipodi:nodetypes="ccccccccccccc" />
        <path
           style="opacity:1;fill:#b3b3b3;fill-opacity:1;stroke:none;stroke-width:5;stroke-linecap:round;stroke-linejoin:miter;stroke-miterlimit:4;stroke-dasharray:none;stroke-dashoffset:0;stroke-opacity:0.49803922"
           d="m 69.27163,158.84355 c -1.740787,0.002 -3.225117,1.26194 -3.509929,2.97926 -1.756128,0.24779 -3.196331,1.74975 -3.198249,3.52327 -2e-5,1.9673 1.594796,3.56211 3.562093,3.56209 h 6.884934 c 1.967297,2e-5 3.562112,-1.59479 3.562092,-3.56209 2e-5,-1.9673 -1.460918,-3.56212 -3.428215,-3.56209 -0.120883,0.001 -0.241625,0.009 -0.361754,0.0222 -0.292099,-1.71112 -1.775101,-2.96251 -3.510972,-2.96266 z"
           id="path835"
           inkscape:connector-curvature="0"
           sodipodi:nodetypes="cccccccccc" />
      </g>
      <path
         style="fill:#ffdd55;fill-opacity:1;stroke:none;stroke-width:0.26458332"
         inkscape:connector-curvature="0"
         d="m 67.568013,166.00484 v 4.95 h 1.349999 v 4.05 l 3.15001,-5.40001 h -1.800004 l 1.800004,-3.59999 z"
         id="path4546" />
    </g>
  </g>
</svg>
