<?xml version="1.0" encoding="UTF-8" standalone="no"?>
<!-- Created with Inkscape (http://www.inkscape.org/) -->

<svg
   xmlns:dc="http://purl.org/dc/elements/1.1/"
   xmlns:cc="http://creativecommons.org/ns#"
   xmlns:rdf="http://www.w3.org/1999/02/22-rdf-syntax-ns#"
   xmlns:svg="http://www.w3.org/2000/svg"
   xmlns="http://www.w3.org/2000/svg"
   xmlns:sodipodi="http://sodipodi.sourceforge.net/DTD/sodipodi-0.dtd"
   xmlns:inkscape="http://www.inkscape.org/namespaces/inkscape"
   width="24mm"
   height="24mm"
   viewBox="0 0 24 24"
   version="1.1"
   id="svg8"
   inkscape:version="0.92.4 (5da689c313, 2019-01-14)"
   sodipodi:docname="tide.svg">
  <defs
     id="defs2" />
  <sodipodi:namedview
     id="base"
     pagecolor="#ffffff"
     bordercolor="#666666"
     borderopacity="1.0"
     inkscape:pageopacity="0.0"
     inkscape:pageshadow="2"
     inkscape:zoom="1.979899"
     inkscape:cx="61.944122"
     inkscape:cy="120.06347"
     inkscape:document-units="mm"
     inkscape:current-layer="layer1"
     showgrid="false"
     showguides="true"
     inkscape:guide-bbox="true"
     inkscape:window-width="1920"
     inkscape:window-height="991"
     inkscape:window-x="-9"
     inkscape:window-y="-9"
     inkscape:window-maximized="1" />
  <metadata
     id="metadata5">
    <rdf:RDF>
      <cc:Work
         rdf:about="">
        <dc:format>image/svg+xml</dc:format>
        <dc:type
           rdf:resource="http://purl.org/dc/dcmitype/StillImage" />
        <dc:title></dc:title>
      </cc:Work>
    </rdf:RDF>
  </metadata>
  <g
     inkscape:label="Layer 1"
     inkscape:groupmode="layer"
     id="layer1"
     transform="translate(0,-273)"
     style="opacity:1">
    <g
       id="g857"
       transform="matrix(0.01244883,0,0,-0.02517904,2.2684023,289.99157)"
       style="fill:none;stroke:#000000;stroke-width:56.4827919;stroke-miterlimit:4;stroke-dasharray:none;stroke-opacity:1;stroke-linejoin:round" />
    <path
       style="fill:#0000ff;fill-opacity:1;stroke:none;stroke-width:0.99999994px;stroke-linecap:butt;stroke-linejoin:miter;stroke-opacity:1"
       d="m -94.128906,-48.689453 c -3.160305,-0.0034 -7.644534,5.607422 -7.644534,5.607422 V 93.414063 h 76.451174 14.140625 63.457032 12.99414 63.457029 14.14063 76.45117 l 0.11719,-136.496094 c 0,0 -3.86614,-5.502854 -6.80078,-5.59961 -7.96276,-0.263055 -11.44516,13.992494 -19.41211,13.94336 -7.83916,-0.048 -11.09235,-13.947393 -18.93164,-13.951172 -7.85513,-0.0076 -11.13512,13.954951 -18.99024,13.951172 -7.83889,-0.0076 -11.0908,-13.939834 -18.92969,-13.951172 -0.0457,-3.8e-5 -0.0944,0.01185 -0.14062,0.01563 -0.0155,-7.94e-4 -0.0318,-0.004 -0.0469,-0.0078 -7.96275,-0.263055 -11.44515,13.992494 -19.41211,13.94336 -7.83915,-0.048 -11.09234,-13.947393 -18.931636,-13.951172 -7.855125,-0.0076 -11.135118,13.954951 -18.990235,13.951172 -7.838887,-0.0076 -11.090803,-13.939834 -18.929687,-13.951172 -0.237332,-2.53e-4 -0.48457,0.03934 -0.734375,0.09766 -0.202648,-0.05134 -0.403828,-0.08339 -0.599609,-0.08984 -7.962755,-0.263055 -11.445157,13.992494 -19.41211,13.94336 -7.839154,-0.048 -11.092344,-13.947393 -18.93164,-13.951172 -7.855121,-0.0076 -11.1351183,13.954951 -18.9902349,13.951172 -7.8388876,-0.0076 -11.0908042,-13.939834 -18.9296871,-13.951172 -0.0457,-4.9e-5 -0.09439,0.01141 -0.140625,0.01367 -0.01536,-7.98e-4 -0.03157,-0.0054 -0.04687,-0.0059 -7.962754,-0.263055 -11.445157,13.992494 -19.41211,13.94336 -7.839151,-0.048 -11.092345,-13.947393 -18.93164,-13.951172 -7.855121,-0.0076 -11.135118,13.954951 -18.990235,13.951172 -7.838887,-0.0076 -11.090803,-13.939834 -18.929687,-13.951172 z"
       transform="matrix(0.26458333,0,0,0.26458333,0,273)"
       id="path877"
       inkscape:connector-curvature="0"
       sodipodi:nodetypes="cccccccccccccccccccccccccccccccccc" />
    <g
       transform="translate(-30.575232,-23.758038)"
       id="layer1-4"
       inkscape:label="Layer 1" />
  </g>
</svg>
